<?xml version="1.0" encoding="UTF-8" standalone="no"?>
<!-- Generator: Adobe Illustrator 14.0.0, SVG Export Plug-In . SVG Version: 6.00 Build 43363)  -->

<svg
   xmlns:dc="http://purl.org/dc/elements/1.1/"
   xmlns:cc="http://creativecommons.org/ns#"
   xmlns:rdf="http://www.w3.org/1999/02/22-rdf-syntax-ns#"
   xmlns:svg="http://www.w3.org/2000/svg"
   xmlns="http://www.w3.org/2000/svg"
   xmlns:sodipodi="http://sodipodi.sourceforge.net/DTD/sodipodi-0.dtd"
   xmlns:inkscape="http://www.inkscape.org/namespaces/inkscape"
   version="1.1"
   id="Layer_1"
   x="0px"
   y="0px"
   width="300px"
   height="300px"
   viewBox="0 0 300 300"
   enable-background="new 0 0 300 300"
   xml:space="preserve"
   inkscape:version="0.92.2 (5c3e80d, 2017-08-06)"
   sodipodi:docname="200.svg"><metadata
     id="metadata15"><rdf:RDF><cc:Work
         rdf:about=""><dc:format>image/svg+xml</dc:format><dc:type
           rdf:resource="http://purl.org/dc/dcmitype/StillImage" /><dc:title /></cc:Work></rdf:RDF></metadata><defs
     id="defs13" /><sodipodi:namedview
     pagecolor="#ffffff"
     bordercolor="#666666"
     borderopacity="1"
     objecttolerance="10"
     gridtolerance="10"
     guidetolerance="10"
     inkscape:pageopacity="0"
     inkscape:pageshadow="2"
     inkscape:window-width="1366"
     inkscape:window-height="745"
     id="namedview11"
     showgrid="false"
     inkscape:zoom="0.78666667"
     inkscape:cx="110.45975"
     inkscape:cy="150"
     inkscape:window-x="-8"
     inkscape:window-y="-8"
     inkscape:window-maximized="1"
     inkscape:current-layer="Layer_1" /><g
     id="g4143"
     transform="matrix(0.63476729,0,0,0.63476729,52.773021,63.401616)"><path
       id="path3"
       d="m 108.422,50.727 c 10.115,-4.038 21.298,-1.269 30.866,2.97 10.676,5.017 21.583,12.316 25.963,23.775 1.965,4.676 0.675,10.132 -2.701,13.797 -2.656,2.269 -6.434,1.636 -9.617,1.315 -7.225,-1.551 -11.648,-7.978 -17.263,-12.188 -4.867,-4.284 -10.048,-8.922 -16.636,-10.107 -5.877,-0.971 -10.982,2.918 -14.749,6.952 -5.669,6.993 -9.25,15.397 -12.042,23.882 -1.814,7.4 -5.674,14.461 -5.209,22.271 -0.552,-7.204 -2.607,-14.216 -2.804,-21.455 -0.368,-9.334 0.816,-18.72 3.16,-27.745 4.299,-9.672 10.943,-19.245 21.032,-23.467 z"
       inkscape:connector-curvature="0" /><path
       id="path5"
       d="m 200.646,56.913 c 7.323,-0.85 15.021,2.023 19.936,7.537 3.334,4.104 5.573,9.274 5.537,14.615 -0.646,6.494 -3.914,12.911 -9.367,16.643 -6.428,4.556 -15.215,5.505 -22.448,2.347 -10.746,-4.083 -17.004,-17.916 -11.48,-28.365 3.107,-7.108 10.272,-11.733 17.822,-12.777 z"
       inkscape:connector-curvature="0" /><path
       id="path7"
       d="m 276.883,94.662 c 0.434,-0.024 0.871,-0.035 1.313,-0.027 -0.185,3.852 0.819,7.701 0.184,11.538 -1.017,6.596 -3.673,12.791 -6.55,18.764 -6.32,14.098 -18.271,25.74 -32.761,31.219 -6.652,2.346 -14.544,2.166 -20.538,-1.839 -9.694,-6.33 -17.318,-15.983 -20.652,-27.126 -2.111,-6.018 -2.184,-13.245 1.445,-18.699 1.814,-2.39 4.266,-5.059 7.545,-4.88 3.388,0.313 6.416,2.348 8.462,5 4.817,6.323 5.825,14.547 9.796,21.298 3.322,4.354 8.694,9.526 14.633,6.979 7.157,-3.026 13.181,-8.173 19,-13.22 7.358,-6.328 12.479,-14.775 16.567,-23.473 0.821,-1.745 1.394,-3.605 1.556,-5.534 z"
       inkscape:connector-curvature="0" /><path
       id="path9"
       d="m 98.081,135.092 c 4.257,-3.605 10.544,-3.255 15.495,-1.452 4.974,2.115 10.214,3.749 14.755,6.757 7.051,4.518 13.789,9.584 19.817,15.404 6.811,5.506 13.136,11.648 18.556,18.54 4,4.705 8.176,10.202 7.861,16.718 -2.955,9.494 -11.091,16.436 -19.554,21.081 -11.224,5.707 -23.743,7.972 -35.739,11.474 -5.188,1.675 -10.634,2.285 -16.029,2.865 -6.109,0.33 -12.251,1.591 -18.356,0.51 3.912,-2.844 8.648,-4.108 12.948,-6.214 12.347,-5.33 23.968,-12.164 35.998,-18.153 5.096,-2.467 10.087,-5.611 13.001,-10.634 -0.156,-1.104 -0.308,-2.205 -0.455,-3.304 -3.425,-3.467 -7.653,-5.944 -12.011,-8.045 -5.085,4.203 -10.947,7.4 -15.631,12.093 -12.854,9.567 -27.063,17.068 -40.752,25.346 -18.428,10.356 -35.862,22.431 -54.64,32.177 -1.094,0.393 -2.215,0.697 -3.362,0.916 7.211,-7.857 15.608,-14.544 22.708,-22.509 10.246,-10.732 20.492,-21.47 31.182,-31.764 11.29,-10.871 22.263,-22.063 32.726,-33.733 -4.413,-4.08 -10.111,-7.839 -11.452,-14.096 -1.274,-4.733 -0.524,-10.323 2.934,-13.977 z"
       inkscape:connector-curvature="0" /></g><text
     xml:space="preserve"
     style="font-style:normal;font-weight:normal;font-size:40px;line-height:1.25;font-family:sans-serif;letter-spacing:0px;word-spacing:0px;fill:#000000;fill-opacity:1;stroke:none"
     x="105.88136"
     y="235.35594"
     id="text845"><tspan
       sodipodi:role="line"
       id="tspan843"
       x="105.88136"
       y="235.35594"
       style="font-style:normal;font-variant:normal;font-weight:bold;font-stretch:normal;font-size:37.33333206px;font-family:'Segoe Script';-inkscape-font-specification:'Segoe Script Bold'">200</tspan></text>
</svg>