<?xml version="1.0" encoding="UTF-8" standalone="no"?>
<!-- Created with Inkscape (http://www.inkscape.org/) -->

<svg
   xmlns:dc="http://purl.org/dc/elements/1.1/"
   xmlns:cc="http://creativecommons.org/ns#"
   xmlns:rdf="http://www.w3.org/1999/02/22-rdf-syntax-ns#"
   xmlns:svg="http://www.w3.org/2000/svg"
   xmlns="http://www.w3.org/2000/svg"
   xmlns:sodipodi="http://sodipodi.sourceforge.net/DTD/sodipodi-0.dtd"
   xmlns:inkscape="http://www.inkscape.org/namespaces/inkscape"
   width="300mm"
   height="300mm"
   viewBox="0 0 1062.9921 1062.9921"
   id="svg2"
   version="1.1"
   inkscape:version="0.91 r13725"
   sodipodi:docname="1.svg">
  <defs
     id="defs4" />
  <sodipodi:namedview
     id="base"
     pagecolor="#ffffff"
     bordercolor="#666666"
     borderopacity="1.0"
     inkscape:pageopacity="0.0"
     inkscape:pageshadow="2"
     inkscape:zoom="0.35"
     inkscape:cx="-51.099043"
     inkscape:cy="514.28571"
     inkscape:document-units="px"
     inkscape:current-layer="layer1"
     showgrid="false"
     inkscape:window-width="1366"
     inkscape:window-height="719"
     inkscape:window-x="0"
     inkscape:window-y="25"
     inkscape:window-maximized="1" />
  <metadata
     id="metadata7">
    <rdf:RDF>
      <cc:Work
         rdf:about="">
        <dc:format>image/svg+xml</dc:format>
        <dc:type
           rdf:resource="http://purl.org/dc/dcmitype/StillImage" />
        <dc:title></dc:title>
      </cc:Work>
    </rdf:RDF>
  </metadata>
  <g
     inkscape:label="Layer 1"
     inkscape:groupmode="layer"
     id="layer1"
     transform="translate(0,10.629921)">
    <g
       id="g4147"
       transform="matrix(3.5691747,0,0,3.5691747,-1539.0308,-1502.0515)">
      <path
         style="fill:#f3f3f3"
         d="m 544.99997,660.55609 c 0,-0.20765 0.7875,-0.99515 1.75,-1.75 1.58606,-1.24387 1.62143,-1.2085 0.37756,0.37756 -1.30637,1.66575 -2.12756,2.19548 -2.12756,1.37244 z m 22.5,-21.62244 c 0.99549,-1.1 2.03498,-2 2.30998,-2 0.275,0 -0.31449,0.9 -1.30998,2 -0.99549,1.1 -2.03498,2 -2.30998,2 -0.275,0 0.31449,-0.9 1.30998,-2 z m 20.5,-20.37756 c 0,-0.20765 0.7875,-0.99515 1.75,-1.75 1.58606,-1.24387 1.62143,-1.2085 0.37756,0.37756 -1.30637,1.66575 -2.12756,2.19548 -2.12756,1.37244 z m -18,-33.12244 c 1.86578,-1.925 3.61733,-3.5 3.89233,-3.5 0.275,0 -1.02655,1.575 -2.89233,3.5 -1.86578,1.925 -3.61733,3.5 -3.89233,3.5 -0.275,0 1.02655,-1.575 2.89233,-3.5 z m 25.5,-20.5 c 0.99549,-1.1 2.03498,-2 2.30998,-2 0.275,0 -0.31449,0.9 -1.30998,2 -0.99549,1.1 -2.03498,2 -2.30998,2 -0.275,0 0.31449,-0.9 1.30998,-2 z m -27.5,-16.5 c 1.29175,-1.375 2.57363,-2.5 2.84863,-2.5 0.275,0 -0.55688,1.125 -1.84863,2.5 -1.29175,1.375 -2.57363,2.5 -2.84863,2.5 -0.275,0 0.55688,-1.125 1.84863,-2.5 z m 66,-101.87755 c 0,-0.20766 0.7875,-0.99516 1.75,-1.75 1.58606,-1.24388 1.62143,-1.20851 0.37756,0.37755 -1.30637,1.66575 -2.12756,2.19548 -2.12756,1.37245 z"
         id="path4181"
         inkscape:connector-curvature="0" />
      <path
         style="fill:#e7e7e7"
         d="m 547.99997,657.55609 c 0,-0.20765 0.7875,-0.99515 1.75,-1.75 1.58606,-1.24387 1.62143,-1.2085 0.37756,0.37756 -1.30637,1.66575 -2.12756,2.19548 -2.12756,1.37244 z m 25.5,-24.62244 c 2.14824,-2.2 4.1309,-4 4.4059,-4 0.275,0 -1.25766,1.8 -3.4059,4 -2.14824,2.2 -4.1309,4 -4.4059,4 -0.275,0 1.25766,-1.8 3.4059,-4 z m 9.45821,-9.25 c 4.14396,-4.41519 5.04179,-5.20909 5.04179,-4.45821 0,0.16049 -2.1375,2.29799 -4.75,4.75 l -4.75,4.45821 4.45821,-4.75 z"
         id="path4179"
         inkscape:connector-curvature="0" />
      <path
         style="fill:#d7d7d7"
         d="m 530.99997,673.55609 c 0,-0.20765 0.7875,-0.99515 1.75,-1.75 1.58606,-1.24387 1.62143,-1.2085 0.37756,0.37756 -1.30637,1.66575 -2.12756,2.19548 -2.12756,1.37244 z"
         id="path4177"
         inkscape:connector-curvature="0" />
      <path
         style="fill:#b7b7b7"
         d="m 634.87241,476.18365 c -1.24387,-1.58606 -1.2085,-1.62143 0.37756,-0.37755 1.66575,1.30636 2.19548,2.12755 1.37244,2.12755 -0.20765,0 -0.99515,-0.7875 -1.75,-1.75 z"
         id="path4175"
         inkscape:connector-curvature="0" />
      <path
         style="fill:#aaaaaa"
         d="m 521.24997,566.19466 c 3.1625,-0.19845 8.3375,-0.19845 11.5,0 3.1625,0.19845 0.575,0.36082 -5.75,0.36082 -6.325,0 -8.9125,-0.16237 -5.75,-0.36082 z m 129,-0.009 c 9.2125,-0.16503 24.2875,-0.16503 33.5,0 9.2125,0.16503 1.675,0.30005 -16.75,0.30005 -18.425,0 -25.9625,-0.13502 -16.75,-0.30005 z"
         id="path4173"
         inkscape:connector-curvature="0" />
      <path
         style="fill:#a4a4a4"
         d="m 475.45136,534.43365 c -3.2e-4,-19.8 0.13325,-28.04173 0.29682,-18.31497 0.16358,9.72677 0.16384,25.92677 5.9e-4,36 -0.16325,10.07324 -0.29708,2.11497 -0.29741,-17.68503 z"
         id="path4171"
         inkscape:connector-curvature="0" />
      <path
         style="fill:#979797"
         d="m 493.24997,566.19034 c 4.2625,-0.18745 11.2375,-0.18745 15.5,0 4.2625,0.18745 0.775,0.34082 -7.75,0.34082 -8.525,0 -12.0125,-0.15337 -7.75,-0.34082 z m 214,0 c 4.2625,-0.18745 11.2375,-0.18745 15.5,0 4.2625,0.18745 0.775,0.34082 -7.75,0.34082 -8.525,0 -12.0125,-0.15337 -7.75,-0.34082 z"
         id="path4169"
         inkscape:connector-curvature="0" />
      <path
         style="fill:#868686"
         d="m 461.15787,659.93365 c 0,-1.375 0.22697,-1.9375 0.50438,-1.25 0.27741,0.6875 0.27741,1.8125 0,2.5 -0.27741,0.6875 -0.50438,0.125 -0.50438,-1.25 z m 162.92105,-94.58333 c 0.048,-1.16495 0.28494,-1.4019 0.60416,-0.60417 0.28887,0.72187 0.25335,1.58437 -0.0789,1.91667 -0.3323,0.33229 -0.56864,-0.25834 -0.52522,-1.3125 z"
         id="path4167"
         inkscape:connector-curvature="0" />
      <path
         style="fill:#676767"
         d="m 501.24997,576.19466 c 3.1625,-0.19845 8.3375,-0.19845 11.5,0 3.1625,0.19845 0.575,0.36082 -5.75,0.36082 -6.325,0 -8.9125,-0.16237 -5.75,-0.36082 z m 29.01375,0.0214 c 1.52006,-0.22986 3.77006,-0.22371 5,0.0136 1.22994,0.23736 -0.0138,0.42542 -2.76375,0.41792 -2.75,-0.008 -3.75631,-0.20172 -2.23625,-0.43157 z m 127.48625,-0.0316 c 13.3375,-0.15752 35.1625,-0.15752 48.5,0 13.3375,0.15752 2.425,0.28641 -24.25,0.28641 -26.675,0 -37.5875,-0.12889 -24.25,-0.28641 z M 485.27233,502.93365 c 0,-2.475 0.19502,-3.4875 0.43337,-2.25 0.23836,1.2375 0.23836,3.2625 0,4.5 -0.23835,1.2375 -0.43337,0.225 -0.43337,-2.25 z m 96.54014,-9.68311 c 0.72187,-0.28888 1.58437,-0.25335 1.91667,0.079 0.33229,0.33229 -0.25834,0.56864 -1.3125,0.52522 -1.16495,-0.048 -1.4019,-0.28494 -0.60417,-0.60417 z m 4,-20 c 0.72187,-0.28888 1.58437,-0.25335 1.91667,0.079 0.33229,0.33229 -0.25834,0.56864 -1.3125,0.52522 -1.16495,-0.048 -1.4019,-0.28495 -0.60417,-0.60417 z"
         id="path4165"
         inkscape:connector-curvature="0" />
      <path
         style="fill:#5a5a5a"
         d="m 485.41124,535.93365 c 0,-9.625 0.14998,-13.5625 0.3333,-8.75 0.18331,4.8125 0.18331,12.6875 0,17.5 -0.18332,4.8125 -0.3333,0.875 -0.3333,-8.75 z m -0.13891,-25 c 0,-2.475 0.19502,-3.4875 0.43337,-2.25 0.23836,1.2375 0.23836,3.2625 0,4.5 -0.23835,1.2375 -0.43337,0.225 -0.43337,-2.25 z"
         id="path4163"
         inkscape:connector-curvature="0" />
      <path
         style="fill:#535353"
         d="m 491.74997,576.27137 c 0.6875,-0.27741 1.8125,-0.27741 2.5,0 0.6875,0.27741 0.125,0.50439 -1.25,0.50439 -1.375,0 -1.9375,-0.22698 -1.25,-0.50439 z m 29,-0.0434 c 1.2375,-0.23836 3.2625,-0.23836 4.5,0 1.2375,0.23835 0.225,0.43337 -2.25,0.43337 -2.475,0 -3.4875,-0.19502 -2.25,-0.43337 z m 65.0625,-82.97738 c 0.72187,-0.28887 1.58437,-0.25335 1.91667,0.079 0.33229,0.33229 -0.25834,0.56864 -1.3125,0.52522 -1.16495,-0.048 -1.4019,-0.28495 -0.60417,-0.60417 z m 3.4375,-20.00627 c 0.9625,-0.25152 2.5375,-0.25152 3.5,0 0.9625,0.25153 0.175,0.45733 -1.75,0.45733 -1.925,0 -2.7125,-0.2058 -1.75,-0.45733 z"
         id="path4161"
         inkscape:connector-curvature="0" />
      <path
         style="fill:#464646"
         d="m 567.99997,637.43365 c 1.29175,-1.375 2.57363,-2.5 2.84863,-2.5 0.275,0 -0.55688,1.125 -1.84863,2.5 -1.29175,1.375 -2.57363,2.5 -2.84863,2.5 -0.275,0 0.55688,-1.125 1.84863,-2.5 z m 19,-18.87756 c 0,-0.20765 0.7875,-0.99515 1.75,-1.75 1.58606,-1.24387 1.62143,-1.2085 0.37756,0.37756 -1.30637,1.66575 -2.12756,2.19548 -2.12756,1.37244 z m -99.25,-42.28472 c 0.6875,-0.27741 1.8125,-0.27741 2.5,0 0.6875,0.27741 0.125,0.50439 -1.25,0.50439 -1.375,0 -1.9375,-0.22698 -1.25,-0.50439 z m 107.25,-9.71528 c 0,-0.20765 0.7875,-0.99515 1.75,-1.75 1.58606,-1.24387 1.62143,-1.2085 0.37756,0.37756 -1.30637,1.66575 -2.12756,2.19548 -2.12756,1.37244 z M 485.19492,556.43365 c 0.0204,-1.65 0.2445,-2.20394 0.49804,-1.23097 0.25354,0.97297 0.23687,2.32297 -0.0371,3 -0.27393,0.67703 -0.48137,-0.11903 -0.46099,-1.76903 z m -0.0371,-39.5 c 0,-1.375 0.22697,-1.9375 0.50438,-1.25 0.27741,0.6875 0.27741,1.8125 0,2.5 -0.27741,0.6875 -0.50438,0.125 -0.50438,-1.25 z"
         id="path4159"
         inkscape:connector-curvature="0" />
      <path
         style="fill:#383838"
         d="m 546.99997,657.55609 c 0,-0.20765 0.7875,-0.99515 1.75,-1.75 1.58606,-1.24387 1.62143,-1.2085 0.37756,0.37756 -1.30637,1.66575 -2.12756,2.19548 -2.12756,1.37244 z m 25.5,-24.62244 c 0.99549,-1.1 2.03498,-2 2.30998,-2 0.275,0 -0.31449,0.9 -1.30998,2 -0.99549,1.1 -2.03498,2 -2.30998,2 -0.275,0 0.31449,-0.9 1.30998,-2 z m 10.5,-10.5 c 1.86578,-1.925 3.61733,-3.5 3.89233,-3.5 0.275,0 -1.02655,1.575 -2.89233,3.5 -1.86578,1.925 -3.61733,3.5 -3.89233,3.5 -0.275,0 1.02655,-1.575 2.89233,-3.5 z m -13,-38 c 1.29175,-1.375 2.57363,-2.5 2.84863,-2.5 0.275,0 -0.55688,1.125 -1.84863,2.5 -1.29175,1.375 -2.57363,2.5 -2.84863,2.5 -0.275,0 0.55688,-1.125 1.84863,-2.5 z m -84.8421,-23.5 c 0,-1.375 0.22697,-1.9375 0.50438,-1.25 0.27741,0.6875 0.27741,1.8125 0,2.5 -0.27741,0.6875 -0.50438,0.125 -0.50438,-1.25 z m 81.8421,-10.37756 c 0,-0.20765 0.7875,-0.99515 1.75,-1.75 1.58606,-1.24387 1.62143,-1.2085 0.37756,0.37756 -1.30637,1.66575 -2.12756,2.19548 -2.12756,1.37244 z"
         id="path4157"
         inkscape:connector-curvature="0" />
      <path
         style="fill:#272727"
         d="m 529.99997,673.55609 c 0,-0.20765 0.7875,-0.99515 1.75,-1.75 1.58606,-1.24387 1.62143,-1.2085 0.37756,0.37756 -1.30637,1.66575 -2.12756,2.19548 -2.12756,1.37244 z m 47,-45.12244 c 1.29175,-1.375 2.57363,-2.5 2.84863,-2.5 0.275,0 -0.55688,1.125 -1.84863,2.5 -1.29175,1.375 -2.57363,2.5 -2.84863,2.5 -0.275,0 0.55688,-1.125 1.84863,-2.5 z m -91.92105,-64.08333 c 0.048,-1.16495 0.28494,-1.4019 0.60416,-0.60417 0.28888,0.72187 0.25335,1.58437 -0.079,1.91667 -0.33229,0.33229 -0.56864,-0.25834 -0.52522,-1.3125 z"
         id="path4155"
         inkscape:connector-curvature="0" />
      <path
         style="fill:#161616"
         d="m 551.99997,652.55609 c 0,-0.20765 0.7875,-0.99515 1.75,-1.75 1.58606,-1.24387 1.62143,-1.2085 0.37756,0.37756 -1.30637,1.66575 -2.12756,2.19548 -2.12756,1.37244 z"
         id="path4153"
         inkscape:connector-curvature="0" />
      <path
         style="fill:#0b0b0b"
         d="m 534.99997,668.55609 c 0,-0.20765 0.7875,-0.99515 1.75,-1.75 1.58606,-1.24387 1.62143,-1.2085 0.37756,0.37756 -1.30637,1.66575 -2.12756,2.19548 -2.12756,1.37244 z m 20,-19 c 0,-0.20765 0.7875,-0.99515 1.75,-1.75 1.58606,-1.24387 1.62143,-1.2085 0.37756,0.37756 -1.30637,1.66575 -2.12756,2.19548 -2.12756,1.37244 z m -55.12755,-5.37244 c -1.24388,-1.58606 -1.20851,-1.62143 0.37755,-0.37756 0.9625,0.75485 1.75,1.54235 1.75,1.75 0,0.82304 -0.82119,0.29331 -2.12755,-1.37244 z m 95.12755,-34.62756 c 0,-0.20765 0.7875,-0.99515 1.75,-1.75 1.58606,-1.24387 1.62143,-1.2085 0.37756,0.37756 -1.30637,1.66575 -2.12756,2.19548 -2.12756,1.37244 z m 40.87244,-133.37244 c -1.24387,-1.58606 -1.2085,-1.62143 0.37756,-0.37755 0.9625,0.75484 1.75,1.54234 1.75,1.75 0,0.82303 -0.82119,0.2933 -2.12756,-1.37245 z"
         id="path4151"
         inkscape:connector-curvature="0" />
      <path
         style="fill:#000000"
         d="m 478.82052,681.53866 c -6.47164,-1.74258 -11.14863,-5.61564 -14.21717,-11.77339 -3.51413,-7.05194 -3.45787,-12.96238 0.19006,-19.96743 7.01138,-13.46382 24.31477,-15.96926 35.43738,-5.13114 12.41933,12.10166 6.03243,33.25208 -11.23082,37.19124 -5.31885,1.21366 -4.37658,1.24322 -10.17945,-0.31928 z m 41.79646,-1.85501 c 4.71628,-9.18739 42.29481,-68.00427 57.21813,-89.55625 19.95265,-28.81524 31.25523,-37.33534 42.09334,-31.73074 4.70958,2.43542 5.2428,6.33143 2.03865,14.8953 -4.05319,10.83313 -12.75829,22.00546 -35.46713,45.51937 -12.16922,12.60064 -65.94702,64.12232 -66.93022,64.12232 -0.34163,0 0.12962,-1.4625 1.04723,-3.25 z m -90.5866,-19.10967 -0.0304,-8.85968 23,-39.75916 23,-39.75917 0,-36.6969 c 0,-23.38376 0.37555,-37.39863 1.03518,-38.63116 1.15713,-2.16212 4.9277,-2.57138 6.76482,-0.73426 0.88736,0.88736 1.2,10.26667 1.2,36 l 0,34.8 26.56574,0 c 16.40009,0 27.30591,0.39612 28.5,1.03518 2.22013,1.18818 2.5726,5.19016 0.60121,6.82626 -0.88546,0.73487 -10.64726,1.19569 -29.07358,1.37245 l -27.74053,0.26611 -26.01281,45 c -14.30705,24.75 -26.41025,45.675 -26.89601,46.5 -0.55867,0.94882 -0.89438,-1.75552 -0.91361,-7.35967 z m 113.96959,-64.64033 c -3.92166,-3.92166 -2.04384,-11.08338 6.08301,-23.19973 13.25995,-19.7693 29.50955,-34.80027 37.62169,-34.80027 4.4316,0 8.89537,2.36267 9.60732,5.08515 0.84681,3.23823 -2.75311,11.80534 -8.24924,19.63154 -6.18183,8.80261 -24.71787,28.20401 -30.78631,32.22357 -5.57144,3.69037 -11.2261,4.11011 -14.27647,1.05974 z m 87.2,-21.2 c -1.83712,-1.83712 -1.42786,-5.60769 0.73426,-6.76482 1.25638,-0.67239 18.77941,-1.03518 50,-1.03518 l 48.06574,0 0,4.5 0,4.5 -48.8,0 c -36.62222,0 -49.09945,-0.29945 -50,-1.2 z m 4.3,-14.8 c 0.33992,-0.55 1.04432,-1 1.56534,-1 0.52101,0 6.53641,-2.41837 13.36754,-5.37415 13.6707,-5.91522 28.56712,-15.10929 28.56712,-17.63162 0,-0.8828 -3.66997,-7.80839 -8.15549,-15.3902 -6.32425,-10.68978 -8.25796,-14.85145 -8.61181,-18.53404 -0.40893,-4.25586 -0.17113,-4.97326 2.29035,-6.90946 6.7167,-5.28336 15.84142,-0.52677 21.75291,11.33947 6.87649,13.80333 9.66984,29.83655 6.32509,36.30459 -3.02744,5.85442 -11.81415,10.95631 -24.18775,14.04431 -13.87423,3.4625 -34.31525,5.41951 -32.9133,3.1511 z m -71.5,-68.09156 c -4.675,-0.49934 -23.125,-2.4842 -41,-4.41081 -17.875,-1.92661 -33.175,-3.51542 -34,-3.53069 -1.31199,-0.0243 -1.30821,-0.14009 0.0301,-0.92401 1.40521,-0.82306 47.8557,-5.35888 83.22336,-8.12662 20.13072,-1.57536 32.85373,-0.97154 36.48435,1.73152 5.76043,4.28874 5.33377,10.63364 -0.94451,14.04594 -2.73033,1.48396 -6.02865,1.81839 -19.29335,1.95625 -8.8,0.0915 -19.825,-0.24225 -24.5,-0.74158 z m 78.5,-11.32972 c -4.00372,-1.79232 -9.03959,-7.21788 -10.94932,-11.7966 -8.45438,-20.27005 17.81968,-38.13739 33.7909,-22.97907 5.01043,4.75541 6.92108,9.731 6.46816,16.84397 -0.49441,7.7646 -4.13772,13.55274 -10.71702,17.02621 -5.0702,2.67675 -13.6975,3.09691 -18.59272,0.90549 z"
         id="path4149"
         inkscape:connector-curvature="0" />
    </g>
  </g>
</svg>
