<?xml version="1.0" encoding="UTF-8" standalone="no"?>
<!-- Created with Inkscape (http://www.inkscape.org/) -->

<svg
   xmlns:dc="http://purl.org/dc/elements/1.1/"
   xmlns:cc="http://creativecommons.org/ns#"
   xmlns:rdf="http://www.w3.org/1999/02/22-rdf-syntax-ns#"
   xmlns:svg="http://www.w3.org/2000/svg"
   xmlns="http://www.w3.org/2000/svg"
   xmlns:sodipodi="http://sodipodi.sourceforge.net/DTD/sodipodi-0.dtd"
   xmlns:inkscape="http://www.inkscape.org/namespaces/inkscape"
   width="300mm"
   height="300mm"
   viewBox="0 0 1062.9921 1062.9921"
   id="svg2"
   version="1.1"
   inkscape:version="0.91 r13725"
   sodipodi:docname="discus_throw.svg">
  <defs
     id="defs4" />
  <sodipodi:namedview
     id="base"
     pagecolor="#ffffff"
     bordercolor="#666666"
     borderopacity="1.0"
     inkscape:pageopacity="0.0"
     inkscape:pageshadow="2"
     inkscape:zoom="0.175"
     inkscape:cx="-300.40128"
     inkscape:cy="-28.658027"
     inkscape:document-units="px"
     inkscape:current-layer="layer1"
     showgrid="false"
     inkscape:window-width="1366"
     inkscape:window-height="719"
     inkscape:window-x="0"
     inkscape:window-y="25"
     inkscape:window-maximized="1" />
  <metadata
     id="metadata7">
    <rdf:RDF>
      <cc:Work
         rdf:about="">
        <dc:format>image/svg+xml</dc:format>
        <dc:type
           rdf:resource="http://purl.org/dc/dcmitype/StillImage" />
        <dc:title />
      </cc:Work>
    </rdf:RDF>
  </metadata>
  <g
     inkscape:label="Layer 1"
     inkscape:groupmode="layer"
     id="layer1"
     transform="translate(0,10.629883)">
    <g
       id="g4147"
       transform="matrix(0.59122908,0,0,0.59122908,-225.5433,693.30164)">
      <path
         style="fill:#d0d0d0"
         d="m 1458.1224,-137.33643 c -3.9426,-5.02724 -3.8305,-5.13935 1.1967,-1.19673 3.0508,2.39261 5.5469,4.8887 5.5469,5.54688 0,2.60874 -2.6029,0.92968 -6.7436,-4.35015 z m 73.0662,-133.12499 -7.6842,-8.71652 8.7165,7.6842 c 8.1469,7.18206 10.1701,9.74884 7.6842,9.74884 -0.5677,0 -4.4902,-3.92244 -8.7165,-8.71652 z m -57.218,-44.375 c -3.9426,-5.02724 -3.8305,-5.13935 1.1967,-1.19673 5.2799,4.14073 6.9589,6.74361 4.3502,6.74361 -0.6582,0 -3.1543,-2.4961 -5.5469,-5.54688 z m -50.9043,-34.65405 c 2.2881,-0.91562 5.022,-0.80303 6.0752,0.25008 1.0532,1.05324 -0.8188,1.80239 -4.1602,1.66476 -3.6924,-0.15214 -4.4435,-0.90316 -1.915,-1.91497 z M 808.74997,-497.29028 c 0,-0.54549 4.6356,-5.1811 10.30133,-10.30134 l 10.30134,-9.30952 -9.30952,10.30134 c -8.67779,9.6023 -11.29315,11.75826 -11.29315,9.30952 z m 755.65863,-224.84523 -6.0381,-7.13169 7.1317,6.03813 c 3.9224,3.32097 7.1317,6.53023 7.1317,7.1317 0,2.53651 -2.5509,0.66388 -8.2253,-6.03814 z m 165.1226,0.79241 c 3.1553,-3.4866 6.4501,-6.33928 7.3218,-6.33928 0.8716,0 -0.9968,2.85268 -4.1522,6.33928 -3.1553,3.48661 -6.4501,6.33929 -7.3218,6.33929 -0.8716,0 0.9968,-2.85268 4.1522,-6.33929 z"
         id="path4161"
         inkscape:connector-curvature="0" />
      <path
         style="fill:#afafaf"
         d="m 1144.7321,101.56728 c 0,-0.65818 2.4961,-3.154273 5.5469,-5.546878 5.0272,-3.942623 5.1393,-3.830513 1.1967,1.196731 -4.1407,5.279827 -6.7436,6.958887 -6.7436,4.350147 z m 50.7143,-50.714286 c 0,-0.658177 2.4961,-3.15427 5.5469,-5.546875 5.0272,-3.942624 5.1393,-3.830513 1.1967,1.19673 -4.1407,5.279833 -6.7436,6.958887 -6.7436,4.350145 z m 142.6339,-6.339286 c 0,-0.658176 2.4961,-3.15427 5.5469,-5.546874 5.0272,-3.942624 5.1393,-3.830514 1.1967,1.19673 -4.1407,5.279832 -6.7436,6.958887 -6.7436,4.350144 z m 478.8663,-64.045071 c 0.1521,-3.692476 0.9031,-4.443522 1.915,-1.915003 0.9156,2.28807 0.803,5.021918 -0.2501,6.075159 -1.0533,1.05324 -1.8024,-0.818846 -1.6648,-4.160156 z m 0.613,-20.338552 c 0,-7.844865 0.6182,-11.054129 1.3737,-7.131696 0.7555,3.922433 0.7555,10.34096 0,14.263393 -0.7555,3.922432 -1.3737,0.713169 -1.3737,-7.131697 z M 1267.5557,-371.61195 c 2.1792,-0.87929 5.745,-0.87929 7.9242,0 2.1791,0.87929 0.3962,1.59874 -3.9621,1.59874 -4.3583,0 -6.1412,-0.71945 -3.9621,-1.59874 z m 362.382,-170.91046 c 0.1521,-3.69248 0.9031,-4.44352 1.9149,-1.915 0.9157,2.28807 0.8031,5.02192 -0.25,6.07516 -1.0533,1.05324 -1.8024,-0.81885 -1.6648,-4.16016 z m -623.8775,-47.88062 c 3.0508,-0.79723 8.043,-0.79723 11.0938,0 3.0508,0.79726 0.5547,1.44957 -5.5469,1.44957 -6.1016,0 -8.5977,-0.65231 -5.5469,-1.44957 z"
         id="path4159"
         inkscape:connector-curvature="0" />
      <path
         style="fill:#8e8e8e"
         d="m 1588.9825,-93.753841 c 0,-4.358258 0.7195,-6.141182 1.5988,-3.962053 0.8793,2.179129 0.8793,5.744977 0,7.924107 -0.8793,2.179129 -1.5988,0.396205 -1.5988,-3.962054 z m -0.2501,-43.054299 c 0.1522,-3.69248 0.9032,-4.44353 1.915,-1.91501 0.9156,2.28807 0.803,5.02192 -0.2501,6.07516 -1.0532,1.05324 -1.8024,-0.81884 -1.6647,-4.16015 z M 851.54014,-499.46811 c 3.15535,-3.4866 6.45016,-6.33928 7.32181,-6.33928 0.87166,0 -0.99682,2.85268 -4.15216,6.33928 -3.15535,3.48661 -6.45016,6.33929 -7.32182,6.33929 -0.87165,0 0.99682,-2.85268 4.15217,-6.33929 z m 129.22326,-59.2501 c 3.08397,-0.80363 7.36299,-0.75079 9.50893,0.1176 2.14594,0.86826 -0.37728,1.52577 -5.60719,1.46117 -5.22991,-0.0647 -6.98571,-0.77498 -3.90174,-1.57861 z m -57.9063,-68.52742 c 0,-0.54549 4.63561,-5.1811 10.30134,-10.30134 l 10.30134,-9.30952 -9.30952,10.30134 c -8.67779,9.6023 -11.29316,11.75826 -11.29316,9.30952 z m 300.5218,-70.90554 c 2.288,-0.91561 5.0219,-0.80303 6.0751,0.25008 1.0533,1.05325 -0.8188,1.80239 -4.1601,1.66476 -3.6925,-0.15214 -4.4436,-0.90315 -1.915,-1.91497 z m 47.3465,-114.23484 c 5.6657,-0.70309 14.9369,-0.70309 20.6027,0 5.6657,0.70312 1.0301,1.27841 -10.3014,1.27841 -11.3314,0 -15.967,-0.57529 -10.3013,-1.27841 z m 383.7249,-132.99729 c 2.288,-0.91562 5.0219,-0.80303 6.0751,0.25008 1.0533,1.05324 -0.8188,1.80239 -4.1601,1.66476 -3.6925,-0.15214 -4.4436,-0.90315 -1.915,-1.91497 z"
         id="path4157"
         inkscape:connector-curvature="0" />
      <path
         style="fill:#707070"
         d="m 930.78121,239.05864 c 1.07743,-1.7433 2.58795,-3.16964 3.35672,-3.16964 0.76876,0 1.39774,1.42634 1.39774,3.16964 0,1.74331 -1.51052,3.16965 -3.35671,3.16965 -1.84619,0 -2.47517,-1.42634 -1.39775,-3.16965 z M 1296.8749,85.719063 c 0,-0.658176 2.4961,-3.154269 5.5469,-5.546874 5.0273,-3.942624 5.1394,-3.830514 1.1967,1.19673 -4.1407,5.279832 -6.7436,6.958887 -6.7436,4.350144 z m 25.3572,-25.745232 c 4.0944,-4.358259 8.1575,-7.924107 9.0291,-7.924107 0.8717,0 -1.7651,3.565848 -5.8595,7.924107 -4.0944,4.358258 -8.1575,7.924107 -9.0291,7.924107 -0.8717,0 1.7651,-3.565849 5.8595,-7.924107 z m 267.1998,-175.915171 c 0,-9.58817 0.5942,-13.5106 1.3204,-8.71652 0.7263,4.79409 0.7263,12.63895 0,17.43304 -0.7262,4.79408 -1.3204,0.87165 -1.3204,-8.71652 z m -387.0283,-179.08481 c 0.065,-5.22991 0.775,-6.9857 1.5786,-3.90174 0.8036,3.08397 0.7508,7.36299 -0.1176,9.50893 -0.8683,2.14594 -1.5258,-0.37728 -1.4612,-5.60719 z M 1005.2678,-475.3077 c 0,-0.65817 2.4961,-3.15427 5.5469,-5.54687 5.0272,-3.94262 5.1393,-3.83051 1.1967,1.19673 -4.1407,5.27983 -6.7436,6.95889 -6.7436,4.35014 z m 639.4754,-213.26852 c 2.1792,-0.87929 5.745,-0.87929 7.9241,0 2.1792,0.87929 0.3962,1.59874 -3.962,1.59874 -4.3583,0 -6.1412,-0.71945 -3.9621,-1.59874 z m -434.241,-9.50893 c 2.1791,-0.87929 5.745,-0.87929 7.9241,0 2.1791,0.87929 0.3962,1.59874 -3.9621,1.59874 -4.3582,0 -6.1412,-0.71945 -3.962,-1.59874 z m 22.1875,0 c 2.1791,-0.87929 5.745,-0.87929 7.9241,0 2.1791,0.87929 0.3962,1.59874 -3.9621,1.59874 -4.3582,0 -6.1412,-0.71945 -3.962,-1.59874 z m 408.8839,-247.23213 c 2.1791,-0.87929 5.745,-0.87929 7.9241,0 2.1791,0.87929 0.3962,1.59874 -3.9621,1.59874 -4.3582,0 -6.1411,-0.71945 -3.962,-1.59874 z"
         id="path4155"
         inkscape:connector-curvature="0" />
      <path
         style="fill:#4e4e4e"
         d="m 1179.5982,69.87085 c 0,-0.658176 2.4961,-3.15427 5.5468,-5.546875 5.0273,-3.942623 5.1394,-3.830513 1.1968,1.19673 -4.1408,5.279833 -6.7436,6.958888 -6.7436,4.350145 z m 634.1787,-146.455782 c 0.1522,-3.692475 0.9032,-4.443522 1.915,-1.915003 0.9156,2.28807 0.803,5.021918 -0.2501,6.075159 -1.0532,1.053241 -1.8024,-0.818845 -1.6647,-4.160156 z M 1225.558,-350.4949 c 3.1553,-3.48661 6.4501,-6.33929 7.3218,-6.33929 0.8716,0 -0.9968,2.85268 -4.1522,6.33929 -3.1553,3.48661 -6.4501,6.33929 -7.3218,6.33929 -0.8716,0 0.9968,-2.85268 4.1522,-6.33929 z m -354.20759,-68.66169 c 2.17913,-0.87929 5.74498,-0.87929 7.92411,0 2.17913,0.87929 0.3962,1.59874 -3.96206,1.59874 -4.35826,0 -6.14118,-0.71945 -3.96205,-1.59874 z m -90.87699,-15.59797 c 0.15215,-3.69247 0.90316,-4.44352 1.91498,-1.915 0.91561,2.28807 0.80303,5.02192 -0.25009,6.07516 -1.05327,1.05324 -1.80238,-0.81885 -1.66476,-4.16016 z m 908.84288,-174.64661 c 2.2881,-0.91562 5.0219,-0.80303 6.0752,0.25008 1.0532,1.05324 -0.8189,1.80239 -4.1602,1.66476 -3.6924,-0.15214 -4.4435,-0.90316 -1.915,-1.91497 z m -278.7385,-174.54237 c -3.9427,-5.02724 -3.8306,-5.13935 1.1967,-1.19673 3.0508,2.3926 5.5469,4.8887 5.5469,5.54687 0,2.60875 -2.6029,0.92969 -6.7436,-4.35014 z"
         id="path4153"
         inkscape:connector-curvature="0" />
      <path
         style="fill:#2f2f2f"
         d="m 1125.7142,120.58513 c 0,-0.65817 2.4961,-3.15427 5.5469,-5.54687 5.0273,-3.94262 5.1394,-3.83051 1.1967,1.19673 -4.1407,5.27983 -6.7436,6.95889 -6.7436,4.35014 z m 25.3572,-21.982578 c 0,-0.545496 4.6356,-5.181098 10.3013,-10.301339 l 10.3014,-9.309526 -9.3096,10.301339 c -8.6778,9.602306 -11.2931,11.758264 -11.2931,9.309526 z m 339.402,-32.553562 c 0.1521,-3.692475 0.9031,-4.443522 1.915,-1.915003 0.9156,2.28807 0.803,5.021918 -0.2501,6.075159 -1.0533,1.05324 -1.8024,-0.818846 -1.6648,-4.160156 z M 1193.8616,55.219367 c 3.1553,-3.486607 6.4501,-6.339286 7.3218,-6.339286 0.8716,0 -0.9969,2.852679 -4.1522,6.339286 -3.1554,3.486607 -6.4502,6.339285 -7.3218,6.339285 -0.8717,0 0.9968,-2.852678 4.1522,-6.339285 z m 153.7276,-23.772321 c 4.0944,-4.358258 8.1575,-7.924106 9.0292,-7.924106 0.8716,0 -1.7651,3.565848 -5.8595,7.924106 -4.0944,4.358259 -8.1575,7.924107 -9.0292,7.924107 -0.8716,0 1.7651,-3.565848 5.8595,-7.924107 z M 1494.4073,1.3354406 c 0,-11.3314727 0.5753,-15.9670756 1.2784,-10.3013388 0.7031,5.6657364 0.7031,14.9369413 0,20.6026772 -0.7031,5.665737 -1.2784,1.030134 -1.2784,-10.3013384 z m 319.3696,-68.4114446 c 0.1522,-3.692475 0.9032,-4.443522 1.915,-1.915003 0.9156,2.28807 0.803,5.021919 -0.2501,6.075159 -1.0532,1.053241 -1.8024,-0.818845 -1.6647,-4.160156 z m -353.9665,-71.845246 -6.0381,-7.1317 7.1317,6.03814 c 6.702,5.67436 8.5746,8.22526 6.0381,8.22526 -0.6015,0 -3.8107,-3.20927 -7.1317,-7.1317 z m 125.7523,-20.07439 c 0.1521,-3.69248 0.9031,-4.44352 1.9149,-1.91501 0.9157,2.28807 0.8031,5.02192 -0.25,6.07516 -1.0533,1.05324 -1.8024,-0.81884 -1.6648,-4.16015 z m -54.3048,-108.29614 -10.9231,-11.88616 11.8861,10.92313 c 6.5374,6.00771 11.8862,11.35648 11.8862,11.88616 0,2.4204 -2.6822,0.1401 -12.8492,-10.92313 z m -487.9544,-208.40401 c 4.0944,-4.35826 8.1575,-7.9241 9.0292,-7.9241 0.8716,0 -1.7651,3.56584 -5.8595,7.9241 -4.0944,4.35826 -8.1575,7.92411 -9.0292,7.92411 -0.8716,0 1.7651,-3.56585 5.8595,-7.92411 z m -234.55353,-18.62976 c 0,-0.65818 2.49609,-3.15427 5.54687,-5.54688 5.02724,-3.94262 5.13935,-3.83051 1.19673,1.19673 -4.14073,5.27984 -6.7436,6.95889 -6.7436,4.35015 z m 269.66983,-48.19686 c 0.1522,-3.69248 0.9032,-4.44352 1.915,-1.915 0.9156,2.28807 0.803,5.02192 -0.2501,6.07516 -1.0532,1.05324 -1.8024,-0.81885 -1.6647,-4.16016 z m 290.6015,-133.51781 c 3.9427,-0.75814 9.6481,-0.72936 12.6785,0.064 3.0305,0.79333 -0.1955,1.41366 -7.1686,1.37848 -6.9732,-0.0352 -9.4527,-0.6843 -5.5099,-1.44244 z m 198.5569,-46.09529 -6.0381,-7.13169 7.1317,6.03813 c 3.9224,3.32097 7.1317,6.53023 7.1317,7.1317 0,2.53651 -2.5509,0.66388 -8.2253,-6.03814 z m 158.7833,0.79241 c 3.1554,-3.4866 6.4502,-6.33928 7.3218,-6.33928 0.8717,0 -0.9968,2.85268 -4.1521,6.33928 -3.1554,3.48661 -6.4502,6.33929 -7.3218,6.33929 -0.8717,0 0.9968,-2.85268 4.1521,-6.33929 z m -163.2366,-185.036 c 0,-0.65818 2.4961,-3.15427 5.5469,-5.54688 5.0272,-3.94262 5.1394,-3.83051 1.1967,1.19673 -4.1407,5.27983 -6.7436,6.95889 -6.7436,4.35015 z m 164.4171,-4.35015 c -3.9426,-5.02724 -3.8305,-5.13935 1.1968,-1.19673 3.0507,2.39261 5.5468,4.8887 5.5468,5.54688 0,2.60874 -2.6028,0.92968 -6.7436,-4.35015 z"
         id="path4151"
         inkscape:connector-curvature="0" />
      <path
         style="fill:#000000"
         d="m 1473.0411,235.889 c 0.7904,-7.84486 4.982,-43.85632 9.3148,-80.02549 12.1922,-101.779002 15.0409,-152.4059302 10.8012,-191.958222 -6.3968,-59.675085 -19.9803,-98.836588 -37.5426,-108.235628 -5.1243,-2.74247 -6.5467,-2.09345 -8.3859,3.82665 -5.9527,19.16112 -50.8736,107.610317 -66.8367,131.6014699 -22.5853,33.9435141 -100.0262,112.1920401 -136.9444,138.3724001 -50.5746,35.86479 -130.0417,71.91213 -196.8705,89.30307 -31.7158,8.25346 -107.63548,21.57813 -109.9213,19.29231 -0.73308,-0.73307 11.19549,-6.6765 26.50794,-13.20761 15.31242,-6.53115 37.82516,-16.83711 50.02826,-22.90219 39.6462,-19.70456 113.5611,-77.5204 164.9994,-129.06161 54.849,-54.958657 80.4092,-95.049439 104.3977,-163.745897 13.8818,-39.753783 27.7914,-95.385423 24.5496,-98.186343 -1.2868,-1.11175 -8.5362,-4.41772 -16.11,-7.34663 -64.8125,-25.0642 -99.7922,-81.42406 -79.6277,-128.29772 8.3706,-19.45777 27.4076,-37.12045 45.1615,-41.90109 16.8569,-4.53909 78.1493,3.10587 117.7517,14.68714 8.5971,2.51413 25,4.65164 36.4509,4.75003 28.7212,0.24691 40.7414,5.13342 53.3383,21.68374 5.8349,7.6662 20.1609,20.6494 31.8354,28.85155 39.6332,27.84509 70.0511,65.71788 83.4958,103.95924 9.1917,26.14413 11.3872,94.442391 4.6681,145.209322 -10.2692,77.589589 -26.4979,125.388688 -76.7047,225.921928 -30.6943,61.46162 -35.5891,69.64085 -34.3568,57.40958 z m 337.907,-244.2939031 c -11.955,-19.1430889 -116.447,-303.6940869 -139.5886,-380.1257069 -34.6238,-114.35504 -41.2533,-146.71037 -35.3946,-172.74553 6.9106,-30.70994 23.595,-46.08477 49.6803,-45.78092 37.7191,0.43934 50.2705,14.04712 64.1536,69.55324 14.0628,56.22426 36.9829,211.14416 54.3973,367.67855 8.9231,80.207781 15.2754,167.9910679 12.1565,167.9910679 -0.7156,0 -3.1476,-2.9568329 -5.4045,-6.570701 z M 828.80239,-391.67531 c -30.48109,-6.40861 -45.44982,-20.94652 -45.33996,-44.03499 0.13312,-27.97806 19.67907,-56.33333 62.22123,-90.26439 17.01841,-13.57368 25.92764,-23.51555 33.05294,-36.88393 21.90229,-41.09292 76.97677,-97.03163 155.058,-157.4913 56.7914,-43.97455 127.564,-75.25138 192.3863,-85.02208 53.3473,-8.04107 91.4283,-5.93199 150.7993,8.35188 24.8734,5.98419 28.9474,8.02296 38.6252,19.3294 16.1278,18.84159 21.7797,32.68611 19.4055,47.5337 -3.0738,19.22246 -13.3318,36.46449 -27.1246,45.59214 -11.5425,7.63853 -14.4527,8.147 -38.7655,6.77324 -14.4573,-0.81688 -42.6889,-5.54259 -62.7369,-10.50159 -31.5907,-7.81415 -42.3677,-8.99453 -80.8259,-8.85266 -38.9228,0.14359 -48.8536,1.34187 -80.8259,9.75293 -20.048,5.27406 -46.4353,13.52664 -58.6384,18.33905 -33.7655,13.31563 -94.02355,44.18764 -128.02063,65.58872 -31.74987,19.98646 -66.80155,46.56953 -55.81864,42.33263 74.8584,-28.87817 121.13157,-34.20592 153.53077,-17.67706 22.5459,11.50206 28.9121,38.49835 15.5755,66.04832 -32.9954,68.15936 -169.70223,136.40392 -242.55831,121.08599 z m 76.62168,-30.12178 c 29.51967,-6.15954 74.98741,-29.07092 97.27303,-49.01627 21.5113,-19.25229 35.9358,-45.53798 32.8069,-59.78368 -2.57,-11.70118 -13.4015,-22.00556 -27.3305,-26.00033 -69.57373,-19.9535 -200.35186,64.72563 -178.97531,115.88689 8.76989,20.98928 35.03935,27.50734 76.22588,18.91339 z m 713.16963,-272.10406 c -47.2314,-15.68362 -78.9309,-53.55337 -86.9744,-103.90384 -8.8118,-55.15974 21.1708,-111.50055 72.0198,-135.33344 15.2138,-7.13072 22.4613,-8.49484 45.1328,-8.49484 24.1175,0 29.2696,1.11309 48.1305,10.39824 49.2192,24.23052 79.3396,82.82983 69.192,134.61292 -12.0413,61.44647 -56.5258,103.2751 -112.6179,105.89421 -12.8594,0.60043 -27.5402,-0.73507 -34.8828,-3.17325 z"
         id="path4149"
         inkscape:connector-curvature="0" />
    </g>
  </g>
</svg>
