<?xml version="1.0" encoding="UTF-8" standalone="no"?>
<!-- Created with Inkscape (http://www.inkscape.org/) -->

<svg
   xmlns:dc="http://purl.org/dc/elements/1.1/"
   xmlns:cc="http://creativecommons.org/ns#"
   xmlns:rdf="http://www.w3.org/1999/02/22-rdf-syntax-ns#"
   xmlns:svg="http://www.w3.org/2000/svg"
   xmlns="http://www.w3.org/2000/svg"
   xmlns:sodipodi="http://sodipodi.sourceforge.net/DTD/sodipodi-0.dtd"
   xmlns:inkscape="http://www.inkscape.org/namespaces/inkscape"
   width="300mm"
   height="300mm"
   viewBox="0 0 1062.9921 1062.9921"
   id="svg2"
   version="1.1"
   inkscape:version="0.91 r13725"
   sodipodi:docname="6.svg">
  <defs
     id="defs4" />
  <sodipodi:namedview
     id="base"
     pagecolor="#ffffff"
     bordercolor="#666666"
     borderopacity="1.0"
     inkscape:pageopacity="0.0"
     inkscape:pageshadow="2"
     inkscape:zoom="0.35"
     inkscape:cx="73.127109"
     inkscape:cy="502.85713"
     inkscape:document-units="px"
     inkscape:current-layer="g4162"
     showgrid="false"
     inkscape:window-width="1366"
     inkscape:window-height="719"
     inkscape:window-x="0"
     inkscape:window-y="25"
     inkscape:window-maximized="1" />
  <metadata
     id="metadata7">
    <rdf:RDF>
      <cc:Work
         rdf:about="">
        <dc:format>image/svg+xml</dc:format>
        <dc:type
           rdf:resource="http://purl.org/dc/dcmitype/StillImage" />
        <dc:title />
      </cc:Work>
    </rdf:RDF>
  </metadata>
  <g
     inkscape:label="Layer 1"
     inkscape:groupmode="layer"
     id="layer1"
     transform="translate(0,10.629921)">
    <g
       id="g4162"
       transform="translate(-600,168.57143)">
      <path
         style="fill:#e8e8e8"
         d="m 215.57427,982.96927 c 0.6754,-0.71893 1.34564,-1.30714 1.48943,-1.30714 0.14378,0 -0.29117,0.58821 -0.96657,1.30714 -0.6754,0.71893 -1.34564,1.30714 -1.48943,1.30714 -0.14379,0 0.29117,-0.58821 0.96657,-1.30714 z m 646.18466,-8.49643 c -0.65033,-0.8293 -0.63188,-0.84776 0.19743,-0.19743 0.87092,0.68306 1.14793,1.11243 0.71757,1.11243 -0.10855,0 -0.5203,-0.41175 -0.915,-0.915 z m -7.56439,-8.10428 -0.99604,-1.17643 1.17643,0.99604 c 0.64704,0.5478 1.17643,1.07719 1.17643,1.17643 0,0.41839 -0.4208,0.10949 -1.35682,-0.99604 z m -9.41142,-9.93429 -0.99605,-1.17643 1.17643,0.99605 c 1.10553,0.93602 1.41444,1.35681 0.99605,1.35681 -0.0992,0 -0.62864,-0.52939 -1.17643,-1.17643 z m -570.126,-23.07243 c 0,-0.10854 0.41175,-0.52029 0.915,-0.915 0.82928,-0.65033 0.84778,-0.63187 0.19741,0.19743 -0.68304,0.87093 -1.11241,1.14794 -1.11241,0.71757 z m 7.84286,-7.32 c 0,-0.10854 0.41175,-0.52029 0.915,-0.915 0.82928,-0.65033 0.84777,-0.63187 0.19741,0.19744 -0.68305,0.87092 -1.11241,1.14793 -1.11241,0.71756 z m 10.98,-10.42331 c 0,-0.09 0.76468,-0.85466 1.69928,-1.69928 l 1.69929,-1.53569 -1.53568,1.69929 c -1.43147,1.58399 -1.86289,1.93964 -1.86289,1.53568 z m 26.92714,-26.50211 c 1.70742,-1.72543 3.22205,-3.13714 3.36583,-3.13714 0.14379,0 -1.13555,1.41171 -2.84298,3.13714 -1.70742,1.72543 -3.22205,3.13714 -3.36583,3.13714 -0.14379,0 1.13555,-1.41171 2.84298,-3.13714 z m 23.00571,-22.48285 c 0.5205,-0.57515 1.064,-1.04572 1.20779,-1.04572 0.14378,0 -0.16443,0.47057 -0.68493,1.04572 -0.5205,0.57514 -1.06401,1.04571 -1.20779,1.04571 -0.14379,0 0.16443,-0.47057 0.68493,-1.04571 z m 297.17754,-49.54071 c -0.65033,-0.82931 -0.63187,-0.84776 0.19744,-0.19744 0.50325,0.39471 0.915,0.80646 0.915,0.915 0,0.43037 -0.42938,0.15336 -1.11244,-0.71756 z m -8.88857,-8.36572 c -0.65033,-0.8293 -0.63187,-0.84776 0.19743,-0.19743 0.87093,0.68306 1.14794,1.11243 0.71757,1.11243 -0.10854,0 -0.52029,-0.41175 -0.915,-0.915 z m -11.99857,-11.50285 -1.26757,-1.43786 1.43786,1.26756 c 0.79082,0.69718 1.43786,1.34421 1.43786,1.43786 0,0.41008 -0.42341,0.0763 -1.60815,-1.26756 z m -16.97294,-16.47 -2.59462,-2.745 2.745,2.59462 c 1.50975,1.42704 2.745,2.66229 2.745,2.745 0,0.39016 -0.48438,-0.0439 -2.89538,-2.59462 z m -57.79563,-57.77571 -1.26756,-1.43786 1.43786,1.26756 c 0.79082,0.69718 1.43785,1.34422 1.43785,1.43786 0,0.41008 -0.42341,0.0763 -1.60815,-1.26756 z m 59.62741,-77.90571 -2.85783,-3.00643 3.00643,2.85783 c 2.79305,2.65507 3.24594,3.15503 2.85783,3.15503 -0.0817,0 -1.43457,-1.35289 -3.00643,-3.00643 z m -227.2931,-0.915 c 0.006,-1.15029 0.11288,-1.55932 0.23794,-0.90888 0.12506,0.65038 0.12031,1.59152 -0.0106,2.09143 -0.13087,0.49985 -0.2332,-0.0324 -0.22739,-1.18255 z M 165.88099,407.95718 c 2.1667,-2.30852 2.63614,-2.72361 2.63614,-2.33101 0,0.0839 -1.11761,1.20152 -2.48357,2.48357 l -2.48357,2.33101 2.331,-2.48357 z m 456.21467,-7.18929 c 0.52051,-0.57514 1.06402,-1.04571 1.2078,-1.04571 0.14379,0 -0.16443,0.47057 -0.68494,1.04571 -0.5205,0.57514 -1.06401,1.04571 -1.2078,1.04571 -0.14378,0 0.16444,-0.47057 0.68494,-1.04571 z m 207.8357,-26.40428 c 0.67538,-0.71893 1.34563,-1.30715 1.48941,-1.30715 0.14379,0 -0.29118,0.58822 -0.96655,1.30715 -0.67538,0.71892 -1.34563,1.30714 -1.48941,1.30714 -0.14379,0 0.29118,-0.58822 0.96655,-1.30714 z m 23.52857,-74.18169 c 0,-0.10857 0.41175,-0.52032 0.915,-0.915 0.8293,-0.65037 0.84776,-0.63188 0.19743,0.19741 -0.68306,0.87095 -1.11243,1.14792 -1.11243,0.71759 z m 15.42429,-14.96545 c 0.5205,-0.57514 1.06401,-1.04571 1.2078,-1.04571 0.14378,0 -0.16444,0.47057 -0.68495,1.04571 -0.5205,0.57514 -1.06401,1.04571 -1.2078,1.04571 -0.14378,0 0.16444,-0.47057 0.68495,-1.04571 z m 10.19571,-9.60884 c 0,-0.10857 0.41175,-0.52032 0.915,-0.915 0.8293,-0.65036 0.84776,-0.63187 0.19743,0.19741 -0.68306,0.87095 -1.11243,1.14793 -1.11243,0.71759 z m 6.79714,-6.79714 c 0,-0.10857 0.41175,-0.52032 0.915,-0.915 0.8293,-0.65037 0.84776,-0.63187 0.19743,0.19741 -0.68306,0.87095 -1.11243,1.14792 -1.11243,0.71759 z m 46.53428,-17.3183 c -1.27002,-1.29407 -2.1915,-2.35286 -2.04771,-2.35286 0.14378,0 1.30055,1.05879 2.57057,2.35286 1.27002,1.29407 2.1915,2.35285 2.04772,2.35285 -0.14379,0 -1.30056,-1.05878 -2.57058,-2.35285 z m -314.02536,-8.235 -0.99604,-1.17643 1.17643,0.99604 c 1.10553,0.93603 1.41443,1.35682 0.99604,1.35682 -0.0992,0 -0.62863,-0.5294 -1.17643,-1.17643 z m -2.89276,-2.87572 c -0.65033,-0.82928 -0.63187,-0.84777 0.19743,-0.19741 0.87093,0.68305 1.14794,1.11241 0.71757,1.11241 -0.10854,0 -0.52029,-0.41175 -0.915,-0.915 z m 150.78028,-30.32551 c 10.85582,-0.0789 28.61989,-0.0789 39.47571,0 10.85582,0.0789 1.97379,0.14347 -19.73786,0.14347 -21.71164,0 -30.59367,-0.0646 -19.73785,-0.14347 z m 63.00428,0.0457 c 0.35946,-0.14504 0.94768,-0.14504 1.30714,0 0.35947,0.14505 0.0654,0.26373 -0.65357,0.26373 -0.71893,0 -1.01303,-0.11868 -0.65357,-0.26373 z m 6.30696,-0.0109 c 0.37745,-0.15104 0.82842,-0.13247 1.00216,0.0412 0.17375,0.17374 -0.1351,0.29732 -0.68625,0.27462 -0.60912,-0.0251 -0.73299,-0.14899 -0.31591,-0.31589 z m 58.54782,-0.0305 c 1.80856,-0.1024 4.63199,-0.10155 6.27428,0.002 1.64224,0.10342 0.16251,0.1872 -3.28835,0.18617 -3.45086,-0.001 -4.79455,-0.0857 -2.98593,-0.18805 z M 771.07705,92.674344 l -1.53568,-1.699286 1.69928,1.535679 c 1.584,1.431467 1.93964,1.862892 1.53569,1.862892 -0.09,0 -0.85467,-0.764678 -1.69929,-1.699285 z M 663.13995,57.053365 c 0,-0.108571 0.41175,-0.520321 0.915,-0.915 0.8293,-0.650366 0.84776,-0.631872 0.19743,0.19741 -0.68306,0.870949 -1.11243,1.147923 -1.11243,0.71759 z"
         id="path4184"
         inkscape:connector-curvature="0" />
      <path
         style="fill:#d8d8d8"
         d="m 291.91141,917.15327 c 0,-0.10854 0.41175,-0.52029 0.915,-0.915 0.82928,-0.65033 0.84777,-0.63187 0.19741,0.19743 -0.68305,0.87093 -1.11241,1.14794 -1.11241,0.71757 z m 22.48285,-21.92617 c 0,-0.09 0.76468,-0.85466 1.69929,-1.69928 l 1.69928,-1.53568 -1.53568,1.69928 c -1.43146,1.584 -1.86289,1.93964 -1.86289,1.53568 z m 26.66571,-26.17668 c 0,-0.10854 0.41175,-0.52029 0.915,-0.915 0.82929,-0.65033 0.84778,-0.63187 0.19741,0.19743 -0.68304,0.87092 -1.11241,1.14793 -1.11241,0.71757 z m 276.52469,-73.91756 c -0.65033,-0.82931 -0.63187,-0.84776 0.19743,-0.19743 0.50325,0.3947 0.915,0.80645 0.915,0.915 0,0.43036 -0.42937,0.15335 -1.11243,-0.71757 z m -18.79572,-18.3 -1.26756,-1.43786 1.43786,1.26756 c 1.3439,1.18475 1.67764,1.60816 1.26756,1.60816 -0.0936,0 -0.74068,-0.64704 -1.43786,-1.43786 z m 82.03011,-335.63929 c 0.37745,-0.15103 0.82842,-0.13246 1.00216,0.0413 0.17375,0.17374 -0.1351,0.29732 -0.68625,0.27461 -0.60913,-0.0251 -0.73299,-0.14898 -0.31591,-0.31589 z M 851.89136,301.75049 c 0,-0.10857 0.41175,-0.52032 0.915,-0.915 0.8293,-0.65037 0.84776,-0.63187 0.19743,0.19741 -0.68306,0.87095 -1.11243,1.14792 -1.11243,0.71759 z m -164.8307,-91.69454 c 10.9996,-0.0788 28.99896,-0.0788 39.99857,0 10.9996,0.0788 1.99993,0.14333 -19.99929,0.14333 -21.99921,0 -30.99889,-0.0645 -19.99928,-0.14333 z m 139.0861,0.0222 c 0.65039,-0.12506 1.59153,-0.12031 2.09143,0.0106 0.49985,0.13087 -0.0324,0.2332 -1.18254,0.22739 -1.15029,-0.006 -1.55932,-0.11288 -0.90889,-0.23794 z m 79.72959,-0.0166 c 1.65354,-0.10377 4.35933,-0.10377 6.01286,0 1.65354,0.10376 0.30064,0.18865 -3.00643,0.18865 -3.30707,0 -4.65996,-0.0849 -3.00643,-0.18865 z m -206.17599,-69.54578 -1.26756,-1.43786 1.43786,1.26757 c 0.79082,0.69717 1.43785,1.3442 1.43785,1.43786 0,0.41006 -0.42341,0.0763 -1.60815,-1.26757 z"
         id="path4182"
         inkscape:connector-curvature="0" />
      <path
         style="fill:#cbcbcb"
         d="m 290.34283,918.72185 c 0,-0.10855 0.41175,-0.5203 0.915,-0.915 0.82929,-0.65033 0.84778,-0.63188 0.19741,0.19743 -0.68304,0.87092 -1.11241,1.14793 -1.11241,0.71757 z m 21.17572,-20.71686 c 1.41623,-1.43786 2.69262,-2.61428 2.8364,-2.61428 0.14379,0 -0.89731,1.17642 -2.31355,2.61428 -1.41623,1.43786 -2.69262,2.61429 -2.8364,2.61429 -0.14379,0 0.89731,-1.17643 2.31355,-2.61429 z m 28.23428,-27.71142 c 0.5205,-0.57515 1.064,-1.04572 1.20779,-1.04572 0.14379,0 -0.16443,0.47057 -0.68493,1.04572 -0.5205,0.57514 -1.06401,1.04571 -1.20779,1.04571 -0.14379,0 0.16443,-0.47057 0.68493,-1.04571 z m 15.16286,-14.64 c 1.41623,-1.43786 2.69262,-2.61429 2.8364,-2.61429 0.14379,0 -0.89731,1.17643 -2.31355,2.61429 -1.41623,1.43785 -2.69262,2.61428 -2.8364,2.61428 -0.14379,0 0.89731,-1.17643 2.31355,-2.61428 z m 274.17183,-49.54071 c -0.65033,-0.82931 -0.63187,-0.84776 0.19743,-0.19743 0.50325,0.3947 0.915,0.80645 0.915,0.915 0,0.43036 -0.42937,0.15335 -1.11243,-0.71757 z m -13.07143,-12.54857 c -0.65033,-0.82931 -0.63187,-0.84776 0.19743,-0.19743 0.87092,0.68306 1.14793,1.11243 0.71757,1.11243 -0.10854,0 -0.52029,-0.41175 -0.915,-0.915 z m -20.35284,-19.86857 -1.80187,-1.96072 1.96071,1.80187 c 1.82499,1.67712 2.20113,2.11956 1.80187,2.11956 -0.0874,0 -0.96969,-0.88232 -1.96071,-1.96071 z m -47.61858,-47.58 c -0.65033,-0.8293 -0.63188,-0.84776 0.19743,-0.19743 0.87092,0.68306 1.14793,1.11243 0.71757,1.11243 -0.10855,0 -0.5203,-0.41175 -0.915,-0.915 z m -59.9793,-103.13356 c 0,-0.71893 0.11868,-1.01304 0.26373,-0.65357 0.14504,0.35946 0.14504,0.94767 0,1.30714 -0.14505,0.35946 -0.26373,0.0654 -0.26373,-0.65357 z M 269.29784,576.05573 c 143.85759,-0.0725 379.26093,-0.0725 523.11852,0 143.8576,0.0725 26.15593,0.13176 -261.55926,0.13176 -287.71519,0 -405.41686,-0.0593 -261.55926,-0.13176 z M 679.25048,441.19357 c 0.37745,-0.15103 0.82842,-0.13246 1.00216,0.0413 0.17375,0.17374 -0.13511,0.29732 -0.68625,0.27461 -0.60913,-0.0251 -0.73299,-0.14898 -0.31591,-0.31589 z m -63.4291,-94.80282 c 0.5205,-0.57514 1.06401,-1.04571 1.2078,-1.04571 0.14378,0 -0.16444,0.47057 -0.68494,1.04571 -0.52051,0.57514 -1.06402,1.04572 -1.2078,1.04572 -0.14379,0 0.16443,-0.47058 0.68494,-1.04572 z m 234.50141,-43.07169 c 0,-0.10857 0.41175,-0.52032 0.915,-0.915 0.8293,-0.65037 0.84776,-0.63187 0.19743,0.19741 -0.68306,0.87095 -1.11243,1.14792 -1.11243,0.71759 z m 15.16285,-14.70402 c 0.67538,-0.71893 1.34563,-1.30714 1.48941,-1.30714 0.14379,0 -0.29117,0.58821 -0.96655,1.30714 -0.67537,0.71893 -1.34562,1.30714 -1.48941,1.30714 -0.14379,0 0.29118,-0.58821 0.96655,-1.30714 z M 172.52632,210.05577 c 90.63326,-0.0728 239.09853,-0.0728 329.92283,-1e-5 90.82428,0.0728 16.66981,0.13236 -164.78775,0.13236 -181.45756,0 -255.768343,-0.0596 -165.13508,-0.13235 z m 754.56188,3.5e-4 c 6.99352,-0.0824 18.28724,-0.0823 25.09714,1.9e-4 6.80995,0.0825 1.08801,0.14994 -12.71542,0.14983 -13.80342,-1e-4 -19.3752,-0.0676 -12.38172,-0.15002 z m 62.96815,-1.9e-4 c 11.71855,-0.0784 30.89435,-0.0784 42.61285,0 11.7185,0.0784 2.1306,0.14261 -21.3064,0.14261 -23.43709,0 -33.02499,-0.0642 -21.30645,-0.14261 z M 686.6018,158.29291 c -0.65033,-0.82928 -0.63187,-0.84778 0.19743,-0.19741 0.87092,0.68304 1.14793,1.11241 0.71757,1.11241 -0.10855,0 -0.5203,-0.41175 -0.915,-0.915 z m -5.22857,-5.22857 c -0.65033,-0.82928 -0.63187,-0.84778 0.19743,-0.19741 0.87092,0.68304 1.14793,1.11241 0.71757,1.11241 -0.10855,0 -0.5203,-0.41175 -0.915,-0.915 z m 99.51147,-39.60643 c 0.0105,-0.86271 0.12784,-1.15234 0.26043,-0.64362 0.13255,0.50873 0.12387,1.21458 -0.0193,1.56857 -0.14321,0.35399 -0.25165,-0.0622 -0.24104,-0.92495 z m 4.57568,-37.253565 -1.80187,-1.960714 1.96071,1.801854 c 1.82498,1.677122 2.20113,2.119574 1.80187,2.119574 -0.0874,0 -0.96969,-0.882321 -1.96071,-1.960714 z"
         id="path4180"
         inkscape:connector-curvature="0" />
      <path
         style="fill:#afafaf"
         d="m 872.93636,992.28172 c 0.50325,-0.13155 1.32675,-0.13155 1.83,0 0.50325,0.1315 0.0915,0.2391 -0.915,0.2391 -1.0065,0 -1.41825,-0.1076 -0.915,-0.2391 z m -22.68029,-29.83459 c -0.65033,-0.8293 -0.63187,-0.84776 0.19743,-0.19743 0.50325,0.3947 0.915,0.80645 0.915,0.915 0,0.43036 -0.42937,0.15335 -1.11243,-0.71757 z M 278.83998,929.70184 c 0,-0.10854 0.41175,-0.52029 0.915,-0.915 0.82928,-0.65033 0.84777,-0.63187 0.19741,0.19744 -0.68305,0.87092 -1.11241,1.14793 -1.11241,0.71756 z m 9.93428,-9.41142 c 0,-0.10855 0.41175,-0.5203 0.915,-0.915 0.82929,-0.65033 0.84778,-0.63188 0.19741,0.19743 -0.68304,0.87092 -1.11241,1.14793 -1.11241,0.71757 z m 18.82286,-18.364 c 0.6754,-0.71893 1.34564,-1.30714 1.48942,-1.30714 0.14379,0 -0.29116,0.58821 -0.96656,1.30714 -0.67541,0.71893 -1.34565,1.30714 -1.48943,1.30714 -0.14379,0 0.29117,-0.58821 0.96657,-1.30714 z m 29.80285,-29.28 c 0.6754,-0.71893 1.34564,-1.30714 1.48943,-1.30714 0.14379,0 -0.29117,0.58821 -0.96657,1.30714 -0.6754,0.71893 -1.34564,1.30715 -1.48943,1.30715 -0.14378,0 0.29117,-0.58822 0.96657,-1.30715 z m 13.59429,-13.00743 c 0,-0.10854 0.41175,-0.52029 0.915,-0.915 0.82928,-0.65033 0.84777,-0.63187 0.19741,0.19743 -0.68305,0.87093 -1.11241,1.14794 -1.11241,0.71757 z m 286.45897,-45.68328 c -0.65033,-0.8293 -0.63187,-0.84776 0.19743,-0.19743 0.87093,0.68306 1.14794,1.11243 0.71757,1.11243 -0.10854,0 -0.52029,-0.41175 -0.915,-0.915 z m -23.25009,-22.22142 -0.99605,-1.17643 1.17643,0.99604 c 0.64704,0.5478 1.17643,1.07719 1.17643,1.17643 0,0.41839 -0.4208,0.10949 -1.35681,-0.99604 z m -120.42761,-2.2657 c 0.0251,-0.60913 0.14898,-0.73299 0.31588,-0.31591 0.15104,0.37745 0.13247,0.82841 -0.0412,1.00216 -0.17374,0.17375 -0.29732,-0.13511 -0.27461,-0.68625 z m 98.22772,-19.43287 -1.80187,-1.96072 1.96071,1.80187 c 1.82499,1.67712 2.20113,2.11956 1.80188,2.11956 -0.0874,0 -0.9697,-0.88232 -1.96072,-1.96071 z m -40.75472,-40.65214 c -1.27002,-1.29407 -2.19151,-2.35286 -2.04772,-2.35286 0.14379,0 1.30055,1.05879 2.57057,2.35286 1.27002,1.29407 2.19151,2.35285 2.04772,2.35285 -0.14378,0 -1.30055,-1.05878 -2.57057,-2.35285 z m -11.04672,-11.63357 c -0.65033,-0.82931 -0.63187,-0.84776 0.19743,-0.19743 0.87093,0.68306 1.14793,1.11243 0.71757,1.11243 -0.10854,0 -0.52029,-0.41175 -0.915,-0.915 z M 660.95048,441.19357 c 0.37745,-0.15103 0.82842,-0.13246 1.00216,0.0413 0.17375,0.17374 -0.1351,0.29732 -0.68625,0.27461 -0.60913,-0.0251 -0.73299,-0.14898 -0.31591,-0.31589 z m 15.9244,-0.005 c 0.50874,-0.13257 1.2146,-0.12385 1.56857,0.0194 0.35403,0.14323 -0.0622,0.25169 -0.92493,0.24104 -0.86272,-0.0107 -1.15233,-0.12784 -0.64364,-0.26041 z m -62.27808,-21.5976 c 0,-0.71893 0.11868,-1.01304 0.26372,-0.65358 0.14504,0.35947 0.14504,0.94768 0,1.30715 -0.14504,0.35946 -0.26372,0.0653 -0.26372,-0.65357 z m -193.63773,-13.4286 c 0.37744,-0.15104 0.82841,-0.13247 1.00215,0.0412 0.17374,0.17374 -0.13508,0.29732 -0.68625,0.27462 -0.6091,-0.0251 -0.733,-0.14899 -0.3159,-0.31589 z m -88.91229,-8.9012 c 0.65039,-0.12506 1.59153,-0.12031 2.09143,0.0106 0.4999,0.13087 -0.0323,0.2332 -1.18252,0.22739 -1.15029,-0.006 -1.55929,-0.11288 -0.90891,-0.23794 z m 516.70744,-92.37332 c 0,-0.10857 0.41175,-0.52032 0.915,-0.915 0.8293,-0.65037 0.84776,-0.63187 0.19743,0.19741 -0.68306,0.87095 -1.11243,1.14792 -1.11243,0.71759 z m 14.37857,-13.91973 c 0.5205,-0.57514 1.06401,-1.04572 1.2078,-1.04572 0.14378,0 -0.16444,0.47058 -0.68495,1.04572 -0.5205,0.57514 -1.06401,1.04571 -1.2078,1.04571 -0.14378,0 0.16444,-0.47057 0.68495,-1.04571 z m 12.28714,-11.70027 c 0,-0.10857 0.41175,-0.52032 0.915,-0.915 0.8293,-0.65036 0.84776,-0.63187 0.19743,0.19741 -0.68306,0.87095 -1.11243,1.14793 -1.11243,0.71759 z M 503.14567,241.5579 c 0.6754,-0.71893 1.34564,-1.30714 1.48943,-1.30714 0.14379,0 -0.29117,0.58821 -0.96657,1.30714 -0.6754,0.71893 -1.34564,1.30715 -1.48943,1.30715 -0.14378,0 0.29117,-0.58822 0.96657,-1.30715 z m 462.34356,-31.48519 c 0.79479,-0.12018 1.97122,-0.11696 2.61428,0.007 0.64312,0.12411 -0.007,0.22244 -1.44502,0.21852 -1.43785,-0.004 -1.96401,-0.10547 -1.16926,-0.22565 z M 736.47065,180.27055 c 0.79083,-0.1198 2.0849,-0.1198 2.87572,0 0.79082,0.1198 0.14378,0.21782 -1.43786,0.21782 -1.58164,0 -2.22868,-0.098 -1.43786,-0.21782 z m -52.44455,-24.59193 -1.80187,-1.96071 1.96071,1.80185 c 1.82498,1.67713 2.20113,2.11958 1.80187,2.11958 -0.0874,0 -0.96969,-0.88232 -1.96071,-1.96072 z M 653.86038,90.975058 c 0.006,-1.150285 0.11289,-1.55929 0.23796,-0.908903 0.12506,0.650387 0.1203,1.59153 -0.0105,2.091428 -0.13087,0.499899 -0.2332,-0.03226 -0.22739,-1.182525 z m 45.22599,-47.664846 c 0.35947,-0.145047 0.94768,-0.145047 1.30714,0 0.35947,0.145048 0.0654,0.263722 -0.65357,0.263722 -0.71893,0 -1.01303,-0.118674 -0.65357,-0.263722 z m 4.44429,-0.01414 c 0.50325,-0.131513 1.32675,-0.131513 1.83,0 0.50325,0.131513 0.0915,0.239115 -0.915,0.239115 -1.0065,0 -1.41825,-0.107602 -0.915,-0.239115 z"
         id="path4178"
         inkscape:connector-curvature="0" />
      <path
         style="fill:#909090"
         d="m 848.6875,960.87856 c -0.65033,-0.82931 -0.63187,-0.84776 0.19743,-0.19743 0.87092,0.68306 1.14793,1.11243 0.71757,1.11243 -0.10854,0 -0.52029,-0.41175 -0.915,-0.915 z M 287.20569,921.85899 c 0,-0.10855 0.41175,-0.5203 0.915,-0.915 0.82928,-0.65033 0.84778,-0.63187 0.19741,0.19743 -0.68304,0.87092 -1.11241,1.14793 -1.11241,0.71757 z m 16.20857,-15.65189 c 0,-0.09 0.76468,-0.85466 1.69929,-1.69928 l 1.69928,-1.53569 -1.53568,1.69929 c -1.43146,1.584 -1.86289,1.93964 -1.86289,1.53568 z m 30.84857,-30.42353 c 0.97554,-1.0065 1.89135,-1.83 2.03513,-1.83 0.14379,0 -0.53674,0.8235 -1.51227,1.83 -0.97554,1.0065 -1.89135,1.83 -2.03513,1.83 -0.14379,0 0.53673,-0.8235 1.51227,-1.83 z m 15.16286,-14.57601 c 0,-0.10854 0.41175,-0.52029 0.915,-0.915 0.82928,-0.65033 0.84777,-0.63187 0.19741,0.19744 -0.68305,0.87092 -1.11241,1.14793 -1.11241,0.71756 z m 277.04754,-57.70899 c -0.65033,-0.8293 -0.63187,-0.84776 0.19743,-0.19743 0.87093,0.68306 1.14794,1.11243 0.71757,1.11243 -0.10854,0 -0.52029,-0.41175 -0.915,-0.915 z m -132.63705,-5.62071 c 0.0107,-0.86272 0.12784,-1.15233 0.2604,-0.64364 0.13257,0.50874 0.12385,1.2146 -0.0194,1.56857 -0.14322,0.35403 -0.25169,-0.0622 -0.24103,-0.92493 z m 0,-6.27429 c 0.0107,-0.86271 0.12784,-1.15232 0.2604,-0.64363 0.13257,0.50874 0.12385,1.21459 -0.0194,1.56857 -0.14322,0.35402 -0.25169,-0.0622 -0.24103,-0.92494 z m 118.27553,-1.96071 -0.99605,-1.17643 1.17643,0.99604 c 0.64704,0.5478 1.17643,1.07719 1.17643,1.17643 0,0.41839 -0.42079,0.10949 -1.35681,-0.99604 z m -28.715,-28.23429 -6.78961,-6.92785 6.92785,6.78961 c 3.81032,3.73425 6.92786,6.85178 6.92786,6.92786 0,0.3752 -0.75914,-0.35424 -7.0661,-6.78962 z m -23.52104,-23.39785 c -3.44186,-3.45086 -6.14028,-6.27429 -5.99649,-6.27429 0.14378,0 3.07748,2.82343 6.51935,6.27429 3.44186,3.45086 6.14027,6.27428 5.99649,6.27428 -0.14379,0 -3.07749,-2.82342 -6.51935,-6.27428 z m 51.43471,-85.61785 c -0.65033,-0.8293 -0.63188,-0.84776 0.19743,-0.19743 0.87092,0.68306 1.14793,1.11243 0.71757,1.11243 -0.10855,0 -0.5203,-0.41175 -0.915,-0.915 z M 450.79327,624.68144 c -0.65037,-0.8293 -0.63187,-0.84776 0.19741,-0.19743 0.87095,0.68306 1.14792,1.11243 0.71759,1.11243 -0.10857,0 -0.52032,-0.41175 -0.915,-0.915 z M 388.9014,603.11359 c 0.5205,-0.57515 1.064,-1.04572 1.20779,-1.04572 0.14378,0 -0.16444,0.47057 -0.68494,1.04572 -0.52049,0.57514 -1.064,1.04571 -1.20778,1.04571 -0.14379,0 0.16443,-0.47057 0.68493,-1.04571 z m 125.12624,-5.06288 c 0.37743,-0.15105 0.8284,-0.13249 1.00214,0.0413 0.17374,0.17374 -0.13507,0.29734 -0.68625,0.27465 -0.6091,-0.0251 -0.73299,-0.14901 -0.31589,-0.31591 z M 123.63397,467.6936 c 0,-0.71893 0.11868,-1.01304 0.26373,-0.65357 0.14504,0.35946 0.14504,0.94768 0,1.30714 -0.14505,0.35946 -0.26373,0.0654 -0.26373,-0.65357 z m 538.8524,-26.48913 c 0.35947,-0.14505 0.94768,-0.14505 1.30715,0 0.35946,0.14504 0.0654,0.26372 -0.65357,0.26372 -0.71893,0 -1.01304,-0.11868 -0.65358,-0.26372 z m 10.45715,-0.0228 c 0.64703,-0.12463 1.70582,-0.12463 2.35285,0 0.64704,0.12462 0.11765,0.22659 -1.17642,0.22659 -1.29408,0 -1.82347,-0.10197 -1.17643,-0.22659 z M 327.60359,397.25556 c 0.79478,-0.12019 1.9712,-0.11697 2.61429,0.007 0.64308,0.1241 -0.007,0.22243 -1.44505,0.21851 -1.43786,-0.004 -1.96401,-0.10547 -1.16924,-0.22565 z m 8.35853,5.2e-4 c 0.79082,-0.1198 2.08489,-0.1198 2.87571,0 0.79082,0.1198 0.14379,0.21782 -1.43786,0.21782 -1.58164,0 -2.22868,-0.098 -1.43785,-0.21782 z m 487.1721,-16.55417 c 0,-0.10857 0.41175,-0.52032 0.915,-0.915 0.8293,-0.65037 0.84776,-0.63187 0.19743,0.19741 -0.68306,0.87095 -1.11243,1.14792 -1.11243,0.71759 z M 337.82479,331.91644 c 0.37744,-0.15104 0.82841,-0.13246 1.00215,0.0412 0.17374,0.17374 -0.13508,0.29732 -0.68625,0.27462 -0.6091,-0.0251 -0.73299,-0.14898 -0.3159,-0.31589 z M 847.18565,306.4562 c 0,-0.10857 0.41175,-0.52032 0.915,-0.915 0.8293,-0.65036 0.84776,-0.63187 0.19743,0.19741 -0.68306,0.87095 -1.11243,1.14792 -1.11243,0.71759 z m -365.95869,-8.4733 c 0.0251,-0.6091 0.14898,-0.73299 0.31588,-0.31589 0.15104,0.37743 0.13247,0.8284 -0.0412,1.00214 -0.17374,0.17374 -0.29732,-0.13507 -0.27461,-0.68625 z m 157.90281,-3.13714 c 0.0251,-0.6091 0.14902,-0.733 0.31591,-0.3159 0.15106,0.37744 0.1325,0.82841 -0.0413,1.00215 -0.17375,0.17374 -0.29735,-0.13508 -0.27466,-0.68625 z m 221.65016,-1.525 c 0.67537,-0.71893 1.34563,-1.30715 1.48941,-1.30715 0.14379,0 -0.29118,0.58822 -0.96655,1.30715 -0.67538,0.71892 -1.34563,1.30714 -1.48941,1.30714 -0.14379,0 0.29118,-0.58822 0.96655,-1.30714 z m 13.07143,-12.48456 c 0,-0.10857 0.41175,-0.52032 0.915,-0.915 0.8293,-0.65036 0.84776,-0.63187 0.19743,0.19741 -0.68306,0.87095 -1.11243,1.14793 -1.11243,0.71759 z M 731.01333,180.28788 c 0.37745,-0.15104 0.82842,-0.13246 1.00216,0.0413 0.17375,0.17374 -0.1351,0.29731 -0.68625,0.27461 -0.60912,-0.0251 -0.73299,-0.14898 -0.31591,-0.31589 z M 703.53782,64.71844 c 0.7948,-0.120184 1.97122,-0.116968 2.61429,0.0071 0.64311,0.124105 -0.007,0.222434 -1.44502,0.218512 -1.43786,-0.0042 -1.96401,-0.105471 -1.16927,-0.225649 z M 701.1778,43.310212 c 0.35946,-0.145047 0.94768,-0.145047 1.30714,0 0.35947,0.145048 0.0654,0.263722 -0.65357,0.263722 -0.71893,0 -1.01303,-0.118674 -0.65357,-0.263722 z"
         id="path4176"
         inkscape:connector-curvature="0" />
      <path
         style="fill:#707070"
         d="m 285.63712,923.42756 c 0,-0.10855 0.41175,-0.5203 0.915,-0.915 0.82928,-0.65033 0.84778,-0.63187 0.19741,0.19743 -0.68304,0.87092 -1.11241,1.14793 -1.11241,0.71757 z m 14.64,-14.08331 c 0,-0.09 0.76468,-0.85467 1.69928,-1.69929 l 1.69929,-1.53568 -1.53568,1.69928 c -1.43147,1.584 -1.86289,1.93965 -1.86289,1.53569 z m 30.32571,-29.90069 c 0.97554,-1.00649 1.89135,-1.82999 2.03513,-1.82999 0.14379,0 -0.53674,0.8235 -1.51227,1.82999 -0.97554,1.0065 -1.89135,1.83 -2.03513,1.83 -0.14379,0 0.53673,-0.8235 1.51227,-1.83 z m 17.51571,-16.99285 c 0.5205,-0.57514 1.06401,-1.04572 1.20779,-1.04572 0.14379,0 -0.16443,0.47058 -0.68493,1.04572 -0.5205,0.57514 -1.064,1.04571 -1.20779,1.04571 -0.14378,0 0.16443,-0.47057 0.68493,-1.04571 z m 127.57714,-13.07143 c 0.52049,-0.57514 1.064,-1.04571 1.20779,-1.04571 0.14378,0 -0.16444,0.47057 -0.68494,1.04571 -0.5205,0.57514 -1.064,1.04572 -1.20779,1.04572 -0.14378,0 0.16444,-0.47058 0.68494,-1.04572 z m 168.03184,-29.67214 c -0.65033,-0.8293 -0.63188,-0.84776 0.19743,-0.19743 0.50325,0.39471 0.915,0.80646 0.915,0.915 0,0.43036 -0.42937,0.15335 -1.11243,-0.71757 z m -19.06724,-18.03857 -0.99604,-1.17643 1.17642,0.99605 c 1.10553,0.93601 1.41444,1.35681 0.99605,1.35681 -0.0992,0 -0.62863,-0.52939 -1.17643,-1.17643 z M 493.8661,794.74071 c 0.006,-1.15028 0.11288,-1.55931 0.23794,-0.90888 0.12506,0.65038 0.12032,1.59153 -0.0106,2.09143 -0.13087,0.49985 -0.23319,-0.0324 -0.22739,-1.18255 z m 116.15418,-7.18928 -0.99604,-1.17643 1.17642,0.99604 c 1.10553,0.93602 1.41444,1.35682 0.99605,1.35682 -0.0992,0 -0.62863,-0.52939 -1.17643,-1.17643 z m -38.65158,-38.16857 -5.21875,-5.35928 5.35929,5.21874 c 4.9777,4.84725 5.59698,5.49983 5.21874,5.49983 -0.0773,0 -2.48896,-2.41168 -5.35928,-5.35929 z m -29.07546,-29.54142 c -0.65033,-0.82931 -0.63187,-0.84777 0.19743,-0.19744 0.87092,0.68306 1.14793,1.11244 0.71757,1.11244 -0.10855,0 -0.5203,-0.41175 -0.915,-0.915 z m 56.99142,-79.47428 c -0.65033,-0.82931 -0.63187,-0.84776 0.19743,-0.19743 0.50325,0.3947 0.915,0.80645 0.915,0.915 0,0.43036 -0.42937,0.15335 -1.11243,-0.71757 z M 516.355,598.03267 c 0.79478,-0.12015 1.97121,-0.11696 2.61429,0.007 0.64308,0.12408 -0.007,0.22242 -1.44505,0.2185 -1.43785,-0.005 -1.96401,-0.10546 -1.16924,-0.22566 z M 666.16018,441.16723 c 1.22981,-0.11045 3.1121,-0.1089 4.18285,0.004 1.07082,0.11234 0.0646,0.20271 -2.23594,0.20082 -2.30057,-0.002 -3.17667,-0.0938 -1.94691,-0.20428 z M 443.53996,402.17285 c 0,-0.09 0.76468,-0.85466 1.69929,-1.69928 l 1.69929,-1.53568 -1.53568,1.69929 c -1.43147,1.58397 -1.8629,1.93961 -1.8629,1.53567 z m -119.07075,-4.90444 c 0.50872,-0.13256 1.21458,-0.12385 1.56857,0.0194 0.35399,0.14323 -0.0622,0.25169 -0.92495,0.24103 -0.86271,-0.0107 -1.15234,-0.12784 -0.64362,-0.2604 z m 16.20857,0 c 0.50872,-0.13256 1.21458,-0.12385 1.56857,0.0194 0.35399,0.14323 -0.0622,0.25169 -0.92495,0.24103 -0.86271,-0.0107 -1.15234,-0.12784 -0.64362,-0.2604 z m 492.91358,-27.02364 c 0,-0.10857 0.41175,-0.52032 0.915,-0.915 0.8293,-0.65037 0.84776,-0.63187 0.19743,0.19741 -0.68306,0.87095 -1.11243,1.14792 -1.11243,0.71759 z m -269.36944,-1.72833 c 0.37745,-0.15104 0.82841,-0.13247 1.00216,0.0412 0.17374,0.17374 -0.13511,0.29732 -0.68625,0.27462 -0.60913,-0.0251 -0.73299,-0.14899 -0.31591,-0.31589 z m -61.37057,-23.30212 -1.53568,-1.69928 1.69929,1.53568 c 1.58397,1.43146 1.93962,1.86289 1.53568,1.86289 -0.09,0 -0.85466,-0.76468 -1.69929,-1.69929 z M 339.39337,331.91644 c 0.37743,-0.15104 0.8284,-0.13246 1.00214,0.0412 0.17374,0.17374 -0.13507,0.29732 -0.68625,0.27462 -0.6091,-0.0251 -0.73299,-0.14898 -0.31589,-0.31589 z m 15.65303,0.0109 c 0.35946,-0.14505 0.94768,-0.14505 1.30714,0 0.35947,0.14504 0.0654,0.26372 -0.65357,0.26372 -0.71893,0 -1.01303,-0.11868 -0.65357,-0.26372 z m 126.18056,-35.51301 c 0.0251,-0.6091 0.14898,-0.73299 0.31588,-0.31589 0.15104,0.37743 0.13247,0.8284 -0.0412,1.00214 -0.17374,0.17374 -0.29732,-0.13507 -0.27461,-0.68625 z m 377.20011,-0.7407 c 0.52051,-0.57514 1.06402,-1.04571 1.2078,-1.04571 0.14379,0 -0.16444,0.47057 -0.68494,1.04571 -0.5205,0.57515 -1.06401,1.04572 -1.2078,1.04572 -0.14379,0 0.16444,-0.47057 0.68494,-1.04572 z m -377.15884,-5.22857 c 0,-0.71893 0.11868,-1.01303 0.26372,-0.65357 0.14505,0.35946 0.14505,0.94768 0,1.30714 -0.14504,0.35947 -0.26372,0.0654 -0.26372,-0.65357 z m 391.01456,-8.04026 c 0,-0.10858 0.41175,-0.52033 0.915,-0.915 0.8293,-0.65037 0.84776,-0.63188 0.19743,0.19741 -0.68306,0.87094 -1.11243,1.14792 -1.11243,0.71759 z m 53.72356,-13.74316 c 0.35947,-0.14504 0.94768,-0.14504 1.30715,0 0.35946,0.14505 0.0654,0.26373 -0.65358,0.26373 -0.71892,0 -1.01303,-0.11868 -0.65357,-0.26373 z M 564.22192,218.45645 c 0.37745,-0.15104 0.82841,-0.13247 1.00216,0.0413 0.17374,0.17374 -0.13511,0.29732 -0.68625,0.27462 -0.60913,-0.0251 -0.73299,-0.14898 -0.31591,-0.31589 z M 801.33207,189.1435 c 2.81878,-0.0942 7.2892,-0.0938 9.93429,0.001 2.64513,0.0947 0.33886,0.17176 -5.125,0.17126 -5.46385,-5e-4 -7.62801,-0.078 -4.80929,-0.17218 z m -68.78284,-8.84473 c 0.35946,-0.14504 0.94767,-0.14504 1.30714,0 0.35946,0.14505 0.0654,0.26373 -0.65357,0.26373 -0.71893,0 -1.01304,-0.11868 -0.65357,-0.26373 z m 2.6204,-21.46066 c 0.65038,-0.12506 1.59152,-0.12031 2.09143,0.0106 0.49985,0.13086 -0.0324,0.23319 -1.18255,0.22739 -1.15028,-0.006 -1.55931,-0.11288 -0.90888,-0.23795 z m 67.71559,-46.16448 c 0,-1.29407 0.10196,-1.82347 0.22655,-1.17643 0.12465,0.64703 0.12465,1.70582 0,2.35286 -0.12459,0.64703 -0.22655,0.11764 -0.22655,-1.17643 z M 701.21048,64.736463 c 0.37745,-0.151038 0.82841,-0.132466 1.00216,0.04125 0.17374,0.17374 -0.13511,0.297318 -0.68625,0.274615 -0.60913,-0.0251 -0.73299,-0.148983 -0.31591,-0.315889 z"
         id="path4174"
         inkscape:connector-curvature="0" />
      <path
         style="fill:#4d4d4d"
         d="m 855.48464,968.19856 c -0.65033,-0.82931 -0.63187,-0.84776 0.19743,-0.19743 0.50325,0.3947 0.915,0.80645 0.915,0.915 0,0.43036 -0.42937,0.15335 -1.11243,-0.71757 z m -9.41143,-9.93429 c -0.65032,-0.8293 -0.63187,-0.84776 0.19744,-0.19743 0.87092,0.68306 1.14793,1.11243 0.71756,1.11243 -0.10854,0 -0.52029,-0.41175 -0.915,-0.915 z M 297.13998,912.48139 c 0,-0.09 0.76467,-0.85466 1.69928,-1.69929 l 1.69929,-1.53568 -1.53568,1.69929 c -1.43147,1.58399 -1.86289,1.93964 -1.86289,1.53568 z m 29.25814,-28.72425 c 2.1667,-2.30852 2.63614,-2.72362 2.63614,-2.33101 0,0.0839 -1.11761,1.20153 -2.48357,2.48358 l -2.48357,2.331 2.331,-2.48357 z m 19.629,-19.215 c 0.52049,-0.57515 1.064,-1.04572 1.20778,-1.04572 0.14379,0 -0.16443,0.47057 -0.68493,1.04572 -0.5205,0.57514 -1.064,1.04571 -1.20779,1.04571 -0.14378,0 0.16444,-0.47057 0.68494,-1.04571 z m 287.76611,-54.24643 c -0.65033,-0.8293 -0.63187,-0.84776 0.19743,-0.19743 0.50325,0.39471 0.915,0.80646 0.915,0.915 0,0.43037 -0.42937,0.15336 -1.11243,-0.71757 z m -11.22438,-10.71857 -0.99604,-1.17643 1.17643,0.99605 c 1.10552,0.93602 1.41443,1.35681 0.99604,1.35681 -0.0992,0 -0.62863,-0.52939 -1.17643,-1.17643 z m -15.14607,-14.64 -1.53569,-1.69928 1.69929,1.53568 c 1.584,1.43148 1.93964,1.86289 1.53568,1.86289 -0.09,0 -0.85466,-0.76468 -1.69928,-1.69929 z m 1.27331,-135.15856 c -0.65033,-0.8293 -0.63187,-0.84776 0.19743,-0.19743 0.87093,0.68306 1.14793,1.11243 0.71757,1.11243 -0.10854,0 -0.52029,-0.41175 -0.915,-0.915 z m -7.84286,-7.84285 c -0.65032,-0.82931 -0.63187,-0.84776 0.19744,-0.19743 0.50325,0.3947 0.915,0.80645 0.915,0.915 0,0.43036 -0.42937,0.15335 -1.11244,-0.71757 z m -190.3513,-47.54502 c 0.37744,-0.15105 0.82841,-0.13249 1.00215,0.0413 0.17374,0.17374 -0.13508,0.29734 -0.68625,0.27465 -0.60911,-0.0251 -0.733,-0.14901 -0.3159,-0.31591 z m 4.67304,0.011 c 0.35946,-0.14504 0.94768,-0.14504 1.30714,0 0.35946,0.14504 0.0654,0.26373 -0.65357,0.26373 -0.71893,0 -1.01304,-0.11869 -0.65357,-0.26373 z M 692.28923,440.64976 c 0.93461,-0.11598 2.46396,-0.11598 3.39857,0 0.93461,0.11598 0.16993,0.21088 -1.69928,0.21088 -1.86922,0 -2.6339,-0.0949 -1.69929,-0.21088 z M 618.10752,426.5186 c -0.65033,-0.82928 -0.63187,-0.84777 0.19743,-0.19741 0.50325,0.39468 0.915,0.80643 0.915,0.915 0,0.43033 -0.42937,0.15336 -1.11243,-0.71759 z M 162.50427,411.74789 c 0.5205,-0.57514 1.06401,-1.04572 1.20779,-1.04572 0.14379,0 -0.16443,0.47058 -0.68493,1.04572 -0.5205,0.57514 -1.064,1.04571 -1.20779,1.04571 -0.14378,0 0.16443,-0.47057 0.68493,-1.04571 z m 7.32,-7.32 c 0.5205,-0.57514 1.06401,-1.04571 1.20779,-1.04571 0.14379,0 -0.16443,0.47057 -0.68493,1.04571 -0.5205,0.57514 -1.064,1.04571 -1.20779,1.04571 -0.14379,0 0.16443,-0.47057 0.68493,-1.04571 z m 152.83767,-7.15431 c 0.37743,-0.15104 0.8284,-0.13247 1.00214,0.0412 0.17374,0.17374 -0.13507,0.29732 -0.68625,0.27462 -0.6091,-0.0251 -0.73299,-0.14899 -0.31589,-0.31589 z m 20.39143,0 c 0.37743,-0.15104 0.8284,-0.13247 1.00214,0.0412 0.17374,0.17374 -0.13507,0.29732 -0.68625,0.27462 -0.6091,-0.0251 -0.73299,-0.14899 -0.31589,-0.31589 z m 483.74085,-20.29569 c 0.67537,-0.71893 1.34562,-1.30714 1.48941,-1.30714 0.14379,0 -0.29118,0.58821 -0.96655,1.30714 -0.67538,0.71893 -1.34563,1.30714 -1.48942,1.30714 -0.14378,0 0.29118,-0.58821 0.96656,-1.30714 z m 5.22857,-5.22857 c 0.67537,-0.71893 1.34562,-1.30714 1.48941,-1.30714 0.14379,0 -0.29118,0.58821 -0.96655,1.30714 -0.67538,0.71893 -1.34563,1.30714 -1.48941,1.30714 -0.14379,0 0.29118,-0.58821 0.96655,-1.30714 z m -274.10172,-3.24551 c 0.65038,-0.12506 1.59153,-0.12031 2.09143,0.0106 0.49985,0.13087 -0.0324,0.2332 -1.18255,0.22739 -1.15028,-0.006 -1.55931,-0.11288 -0.90888,-0.23794 z m 4.17674,0.0235 c 0.35947,-0.14505 0.94768,-0.14505 1.30714,0 0.35947,0.14505 0.0654,0.26372 -0.65357,0.26372 -0.71893,0 -1.01303,-0.11867 -0.65357,-0.26372 z M 341.20064,331.91128 c 0.50872,-0.13257 1.21458,-0.12385 1.56857,0.0194 0.35399,0.14323 -0.0622,0.25169 -0.92495,0.24103 -0.86272,-0.0107 -1.15235,-0.12783 -0.64362,-0.2604 z m 11.75433,0.0161 c 0.35947,-0.14505 0.94768,-0.14505 1.30714,0 0.35947,0.14504 0.0654,0.26372 -0.65357,0.26372 -0.71893,0 -1.01303,-0.11868 -0.65357,-0.26372 z m 503.38067,-34.16229 c 0.52051,-0.57514 1.06402,-1.04571 1.2078,-1.04571 0.14379,0 -0.16443,0.47057 -0.68494,1.04571 -0.5205,0.57514 -1.06401,1.04572 -1.2078,1.04572 -0.14378,0 0.16444,-0.47058 0.68494,-1.04572 z m -375.00756,-4.18286 c 0,-1.29407 0.10197,-1.82346 0.22659,-1.17642 0.12463,0.64703 0.12463,1.70582 0,2.35285 -0.12462,0.64704 -0.22659,0.11765 -0.22659,-1.17643 z m 389.38613,-9.60883 c 0,-0.10857 0.41175,-0.52032 0.915,-0.915 0.82931,-0.65037 0.84777,-0.63188 0.19744,0.19741 -0.68306,0.87095 -1.11244,1.14792 -1.11244,0.71759 z m 12.54858,-12.08974 c 1.56198,-1.58164 2.95764,-2.87571 3.10143,-2.87571 0.14378,0 -1.01659,1.29407 -2.57858,2.87571 -1.56198,1.58165 -2.95764,2.87572 -3.10143,2.87572 -0.14378,0 1.01659,-1.29407 2.57858,-2.87572 z m 45.42185,-23.65928 c -0.65033,-0.82928 -0.63188,-0.84778 0.19743,-0.19741 0.87092,0.68305 1.14793,1.11241 0.71757,1.11241 -0.10855,0 -0.5203,-0.41175 -0.915,-0.915 z M 555.30067,218.46734 c 0.35946,-0.14504 0.94768,-0.14504 1.30714,0 0.35947,0.14505 0.0654,0.26373 -0.65357,0.26373 -0.71893,0 -1.01303,-0.11868 -0.65357,-0.26373 z m 6.79714,0 c 0.35947,-0.14504 0.94768,-0.14504 1.30714,0 0.35947,0.14505 0.0654,0.26373 -0.65357,0.26373 -0.71893,0 -1.01303,-0.11868 -0.65357,-0.26373 z m 134.6357,-29.32579 c 18.33268,-0.0762 48.33161,-0.0762 66.66429,0 18.33267,0.0762 3.33321,0.13852 -33.33214,0.13852 -36.66536,0 -51.66482,-0.0623 -33.33215,-0.13852 z m 223.52142,3.4e-4 c 7.26117,-0.082 19.1431,-0.082 26.40428,0 7.26118,0.082 1.32021,0.14908 -13.20214,0.14908 -14.52236,0 -20.46332,-0.0671 -13.20214,-0.14908 z"
         id="path4172"
         inkscape:connector-curvature="0" />
      <path
         style="fill:#333333"
         d="m 295.83283,913.6907 c 0.5205,-0.57514 1.06401,-1.04571 1.20779,-1.04571 0.14379,0 -0.16443,0.47057 -0.68493,1.04571 -0.5205,0.57515 -1.064,1.04572 -1.20779,1.04572 -0.14378,0 0.16443,-0.47057 0.68493,-1.04572 z m 26.40429,-25.88142 c 0.97553,-1.0065 1.89134,-1.83 2.03513,-1.83 0.14379,0 -0.53674,0.8235 -1.51228,1.83 -0.97553,1.0065 -1.89134,1.83 -2.03513,1.83 -0.14378,0 0.53674,-0.8235 1.51228,-1.83 z m 21.43714,-20.85029 c 0,-0.10854 0.41175,-0.52029 0.915,-0.915 0.82928,-0.65033 0.84777,-0.63187 0.19741,0.19743 -0.68305,0.87093 -1.11241,1.14794 -1.11241,0.71757 z M 620.7218,797.74714 c -0.65033,-0.8293 -0.63187,-0.84776 0.19744,-0.19743 0.87092,0.68306 1.14793,1.11243 0.71756,1.11243 -0.10854,0 -0.52029,-0.41175 -0.915,-0.915 z M 604.28563,781.8 l -1.53568,-1.69928 1.69929,1.53568 c 0.9346,0.84462 1.69928,1.6093 1.69928,1.69929 0,0.40395 -0.43141,0.0481 -1.86289,-1.53569 z m 0.53938,-135.94284 -3.12077,-3.26786 3.26785,3.12078 c 3.03556,2.89892 3.50712,3.41493 3.12078,3.41493 -0.0809,0 -1.55142,-1.47053 -3.26786,-3.26785 z M 269.29784,555.14145 c 143.85759,-0.0725 379.26093,-0.0725 523.11852,0 143.8576,0.0725 26.15593,0.13176 -261.55926,0.13176 -287.71519,0 -405.41686,-0.0593 -261.55926,-0.13176 z m 419.60275,-114.4759 c 0.50874,-0.13256 1.2146,-0.12385 1.56857,0.0194 0.35403,0.14323 -0.0622,0.25169 -0.92493,0.24103 -0.86271,-0.0107 -1.15232,-0.12784 -0.64364,-0.2604 z M 164.5957,409.65646 c 0.5205,-0.57514 1.06401,-1.04571 1.20779,-1.04571 0.14379,0 -0.16443,0.47057 -0.68493,1.04571 -0.5205,0.57514 -1.06401,1.04571 -1.20779,1.04571 -0.14379,0 0.16443,-0.47057 0.68493,-1.04571 z m 3.13714,-3.13714 c 0.5205,-0.57514 1.06401,-1.04572 1.20779,-1.04572 0.14379,0 -0.16443,0.47058 -0.68493,1.04572 -0.5205,0.57514 -1.064,1.04571 -1.20779,1.04571 -0.14378,0 0.16444,-0.47057 0.68493,-1.04571 z M 829.4085,374.36361 c 0.67538,-0.71893 1.34563,-1.30715 1.48941,-1.30715 0.14379,0 -0.29117,0.58822 -0.96655,1.30715 -0.67537,0.71892 -1.34562,1.30714 -1.48941,1.30714 -0.14379,0 0.29118,-0.58822 0.96655,-1.30714 z M 343.57622,331.91644 c 0.37744,-0.15104 0.82841,-0.13246 1.00215,0.0412 0.17374,0.17374 -0.13508,0.29732 -0.68625,0.27462 -0.60911,-0.0251 -0.733,-0.14898 -0.3159,-0.31589 z m 525.56942,-46.37452 c 0,-0.10857 0.41175,-0.52032 0.915,-0.915 0.82931,-0.65037 0.84776,-0.63187 0.19743,0.19741 -0.68306,0.87095 -1.11243,1.14792 -1.11243,0.71759 z m 62.98462,-33.91902 -2.59462,-2.745 2.745,2.59463 c 1.50975,1.42705 2.745,2.6623 2.745,2.745 0,0.39015 -0.48438,-0.0439 -2.89538,-2.59463 z m -314.02274,-8.10428 c -0.65033,-0.82929 -0.63187,-0.84778 0.19743,-0.19741 0.50325,0.39468 0.915,0.80643 0.915,0.915 0,0.43033 -0.42937,0.15336 -1.11243,-0.71759 z m -60.68274,-25.06217 c 0.37745,-0.15104 0.82841,-0.13247 1.00216,0.0413 0.17374,0.17374 -0.13511,0.29732 -0.68625,0.27462 -0.60913,-0.0251 -0.733,-0.14898 -0.31591,-0.31589 z M 171.78499,189.14148 c 90.22552,-0.0728 237.8673,-0.0728 328.09283,0 90.22553,0.0728 16.40464,0.13237 -164.04642,0.13237 -180.45105,0 -254.271942,-0.0596 -164.04641,-0.13237 z m 725.20279,0.004 c 1.94111,-0.10061 5.11747,-0.10061 7.05858,0 1.9411,0.1006 0.35292,0.18291 -3.52929,0.18291 -3.88221,0 -5.47039,-0.0823 -3.52929,-0.18291 z m 86.01,-0.004 c 13.0126,-0.0778 34.30592,-0.0778 47.31852,0 13.0127,0.0778 2.366,0.14151 -23.6592,0.14151 -26.02525,0 -36.67193,-0.0637 -23.65932,-0.14151 z M 675.30809,92.282201 c 0,-1.294071 0.10195,-1.823464 0.22655,-1.176429 0.12465,0.647036 0.12465,1.705822 0,2.352857 -0.1246,0.647036 -0.22655,0.117643 -0.22655,-1.176428 z m 95.99656,0.130714 c -0.65033,-0.829283 -0.63187,-0.847776 0.19743,-0.19741 0.87092,0.683045 1.14793,1.11241 0.71757,1.11241 -0.10855,0 -0.5203,-0.41175 -0.915,-0.915 z"
         id="path4170"
         inkscape:connector-curvature="0" />
      <path
         style="fill:#262626"
         d="m 215.8357,983.2307 c 0.5205,-0.57514 1.064,-1.04571 1.20779,-1.04571 0.14378,0 -0.16444,0.47057 -0.68494,1.04571 -0.52049,0.57514 -1.064,1.04571 -1.20779,1.04571 -0.14378,0 0.16444,-0.47057 0.68494,-1.04571 z m 77.64428,-67.12314 c 0,-0.10855 0.41175,-0.5203 0.915,-0.915 0.82928,-0.65033 0.84777,-0.63187 0.19741,0.19743 -0.68305,0.87092 -1.11241,1.14793 -1.11241,0.71757 z m 24.05142,-23.49474 c 0,-0.09 0.76468,-0.85466 1.69929,-1.69929 l 1.69928,-1.53568 -1.53567,1.69929 c -1.43147,1.58399 -1.8629,1.93964 -1.8629,1.53568 z m 301.62183,-96.43425 c -0.65033,-0.8293 -0.63187,-0.84776 0.19743,-0.19743 0.87093,0.68306 1.14794,1.11243 0.71757,1.11243 -0.10854,0 -0.52029,-0.41175 -0.915,-0.915 z m -17.75,-17.25428 -1.26756,-1.43786 1.43785,1.26756 c 1.3439,1.18474 1.67764,1.60815 1.26757,1.60815 -0.0937,0 -0.74068,-0.64703 -1.43786,-1.43785 z m -55.44999,-55.42286 c -0.65033,-0.8293 -0.63187,-0.84776 0.19743,-0.19743 0.50325,0.39471 0.915,0.80646 0.915,0.915 0,0.43037 -0.42937,0.15336 -1.11243,-0.71757 z M 413.11622,594.39071 c 0.37743,-0.15105 0.8284,-0.13249 1.00214,0.0413 0.17374,0.17374 -0.13507,0.29734 -0.68625,0.27465 -0.6091,-0.0251 -0.73299,-0.14901 -0.31589,-0.31591 z M 686.5378,440.68161 c 0.35947,-0.14505 0.94768,-0.14505 1.30714,0 0.35947,0.14504 0.0654,0.26372 -0.65357,0.26372 -0.71893,0 -1.01303,-0.11868 -0.65357,-0.26372 z m -64.70356,-39.06542 c 0,-0.10857 0.41175,-0.52032 0.915,-0.915 0.8293,-0.65036 0.84776,-0.63187 0.19743,0.19741 -0.68306,0.87095 -1.11243,1.14793 -1.11243,0.71759 z M 346.14617,331.89625 c 0.92819,-0.11551 2.57519,-0.1174 3.66,-0.004 1.0848,0.11318 0.32537,0.20768 -1.68763,0.21001 -2.013,0.002 -2.90057,-0.0903 -1.97237,-0.2058 z m 212.8145,-113.42891 c 0.35946,-0.14504 0.94768,-0.14504 1.30714,0 0.35947,0.14505 0.0654,0.26373 -0.65357,0.26373 -0.71893,0 -1.01304,-0.11868 -0.65357,-0.26373 z M 883.3935,189.1459 c 1.94111,-0.10061 5.11746,-0.10061 7.05857,0 1.94111,0.1006 0.35293,0.18291 -3.52928,0.18291 -3.88222,0 -5.4704,-0.0823 -3.52929,-0.18291 z M 663.6628,57.053365 c 0,-0.108571 0.41175,-0.520321 0.915,-0.915 0.82931,-0.650366 0.84776,-0.631872 0.19743,0.19741 -0.68306,0.870949 -1.11243,1.147923 -1.11243,0.71759 z"
         id="path4168"
         inkscape:connector-curvature="0" />
      <path
         style="fill:#161616"
         d="m 860.19036,973.42713 c -0.65033,-0.8293 -0.63188,-0.84776 0.19743,-0.19743 0.50325,0.3947 0.915,0.80645 0.915,0.915 0,0.43036 -0.42937,0.15335 -1.11243,-0.71757 z m -8.08724,-8.62714 -0.99605,-1.17643 1.17643,0.99604 c 1.10553,0.93602 1.41444,1.35681 0.99605,1.35681 -0.0992,0 -0.62864,-0.52939 -1.17643,-1.17642 z M 273.61141,934.93042 c 0,-0.10855 0.41175,-0.5203 0.915,-0.915 0.82928,-0.65033 0.84777,-0.63188 0.19741,0.19743 -0.68305,0.87092 -1.11241,1.14793 -1.11241,0.71757 z m 7.32,-6.79715 c 0,-0.10854 0.41175,-0.52029 0.915,-0.915 0.82928,-0.65033 0.84777,-0.63187 0.19741,0.19743 -0.68305,0.87093 -1.11241,1.14794 -1.11241,0.71757 z m 10.98,-10.52114 c 0.6754,-0.71893 1.34564,-1.30714 1.48942,-1.30714 0.14379,0 -0.29117,0.58821 -0.96657,1.30714 -0.6754,0.71893 -1.34564,1.30715 -1.48942,1.30715 -0.14379,0 0.29116,-0.58822 0.96657,-1.30715 z m 21.69856,-21.17571 c 1.99758,-2.013 3.7496,-3.66 3.89339,-3.66 0.14378,0 -1.37295,1.647 -3.37053,3.66 -1.99757,2.013 -3.74959,3.66 -3.89338,3.66 -0.14379,0 1.37295,-1.647 3.37052,-3.66 z m 25.88143,-25.26074 c 0,-0.09 0.76468,-0.85466 1.69929,-1.69929 l 1.69928,-1.53568 -1.53568,1.69928 c -1.43146,1.584 -1.86289,1.93965 -1.86289,1.53569 z M 356.20098,855 c 2.1667,-2.30852 2.63613,-2.72362 2.63613,-2.33101 0,0.0839 -1.1176,1.20153 -2.48357,2.48358 l -2.48357,2.331 L 356.20098,855 Z m 303.73511,-20.65286 c -0.65033,-0.8293 -0.63188,-0.84776 0.19743,-0.19743 0.50325,0.3947 0.915,0.80645 0.915,0.915 0,0.43036 -0.42937,0.15335 -1.11243,-0.71757 z m -20.63581,-19.08428 -0.99605,-1.17643 1.17643,0.99604 c 1.10553,0.93602 1.41444,1.35681 0.99605,1.35681 -0.0992,0 -0.62864,-0.52939 -1.17643,-1.17642 z m -9.41143,-8.88857 -0.99604,-1.17643 1.17642,0.99604 c 1.10553,0.93602 1.41444,1.35681 0.99605,1.35681 -0.0992,0 -0.62863,-0.52939 -1.17643,-1.17642 z m -12.79991,-12.28715 -1.26756,-1.43785 1.43786,1.26756 c 0.79082,0.69718 1.43785,1.34421 1.43785,1.43786 0,0.41007 -0.42341,0.0763 -1.60815,-1.26757 z m -19.84687,-19.34571 -2.85783,-3.00643 3.00643,2.85783 c 2.79305,2.65507 3.24595,3.15503 2.85783,3.15503 -0.0817,0 -1.43456,-1.35289 -3.00643,-3.00643 z m -49.17027,-49.14857 -1.26756,-1.43785 1.43786,1.26756 c 0.79082,0.69718 1.43786,1.34421 1.43786,1.43786 0,0.41007 -0.42341,0.0763 -1.60816,-1.26757 z M 431.41622,406.16215 c 0.37743,-0.15104 0.8284,-0.13247 1.00214,0.0412 0.17374,0.17374 -0.13508,0.29732 -0.68625,0.27462 -0.6091,-0.0251 -0.73299,-0.14899 -0.31589,-0.31589 z m 184.40516,-60.29426 c 1.1232,-1.15028 2.15987,-2.09142 2.30365,-2.09142 0.14379,0 -0.65759,0.94114 -1.78079,2.09142 -1.12321,1.15029 -2.15987,2.09143 -2.30366,2.09143 -0.14379,0 0.6576,-0.94114 1.7808,-2.09143 z m 226.65855,-34.70597 c 0,-0.10858 0.41175,-0.52033 0.915,-0.915 0.82931,-0.65037 0.84776,-0.63188 0.19743,0.19741 -0.68306,0.87095 -1.11243,1.14792 -1.11243,0.71759 z m 9.41143,-8.95259 c 0.67537,-0.71893 1.34562,-1.30715 1.48941,-1.30715 0.14379,0 -0.29118,0.58822 -0.96655,1.30715 -0.67538,0.71893 -1.34563,1.30714 -1.48941,1.30714 -0.14379,0 0.29117,-0.58821 0.96655,-1.30714 z m 13.07143,-12.45075 c 0,-0.09 0.76468,-0.85466 1.69928,-1.69929 l 1.69929,-1.53568 -1.53569,1.69929 c -1.43147,1.58397 -1.86288,1.93962 -1.86288,1.53568 z m 12.54857,-12.05952 c 0,-0.10857 0.41175,-0.52032 0.915,-0.915 0.8293,-0.65036 0.84776,-0.63187 0.19743,0.19741 -0.68306,0.87095 -1.11243,1.14792 -1.11243,0.71759 z m 10.45714,-10.45714 c 0,-0.10857 0.41175,-0.52032 0.915,-0.915 0.8293,-0.65037 0.84776,-0.63187 0.19743,0.19741 -0.68306,0.87095 -1.11243,1.14792 -1.11243,0.71759 z M 869.79922,189.1459 c 1.9411,-0.10061 5.11746,-0.10061 7.05857,0 1.9411,0.1006 0.35292,0.18291 -3.52929,0.18291 -3.88221,0 -5.47039,-0.0823 -3.52928,-0.18291 z M 687.12466,158.29291 c -0.65033,-0.82928 -0.63188,-0.84778 0.19743,-0.19741 0.87092,0.68304 1.14793,1.11241 0.71757,1.11241 -0.10855,0 -0.5203,-0.41175 -0.915,-0.915 z m -5.47296,-5.49 -0.99604,-1.17643 1.17643,0.99604 c 1.10553,0.93603 1.41443,1.35682 0.99604,1.35682 -0.0992,0 -0.62863,-0.52939 -1.17643,-1.17643 z m 85.53681,-6.92786 c 0.67537,-0.71892 1.34562,-1.30714 1.48941,-1.30714 0.14379,0 -0.29118,0.58822 -0.96655,1.30714 -0.67538,0.71893 -1.34563,1.30715 -1.48941,1.30715 -0.14379,0 0.29117,-0.58822 0.96655,-1.30715 z m -67.4767,-4.83642 -1.80187,-1.96072 1.96072,1.80186 c 1.82498,1.67712 2.20112,2.11957 1.80187,2.11957 -0.0874,0 -0.96969,-0.88232 -1.96072,-1.96071 z m 86.51131,-63.527142 -0.99604,-1.176429 1.17643,0.996038 c 1.10553,0.936029 1.41443,1.356819 0.99604,1.356819 -0.0992,0 -0.62863,-0.529393 -1.17643,-1.176428 z m -2.89276,-2.875714 c -0.65033,-0.829283 -0.63187,-0.847776 0.19743,-0.19741 0.87093,0.683045 1.14794,1.11241 0.71757,1.11241 -0.10854,0 -0.52029,-0.41175 -0.915,-0.915 z"
         id="path4166"
         inkscape:connector-curvature="0" />
      <g
         id="g4156"
         transform="translate(2.8571443,-4.2857141e-7)">
        <path
           style="fill:#d0d0d0"
           d="m 1064.1473,691.51527 c 0,-0.24242 5.5893,-5.83176 12.4207,-12.42076 l 12.4208,-11.97997 -11.98,12.42076 c -11.1267,11.53613 -12.8615,13.15201 -12.8615,11.97997 z M 833.4881,678.19974 c 0.0769,-1.86704 0.45667,-2.2468 0.96828,-0.96829 0.46296,1.15692 0.40603,2.53925 -0.12646,3.0718 -0.53257,0.53256 -0.91134,-0.41403 -0.84175,-2.10351 z m -25.64286,-8.0134 c 0.0769,-1.86704 0.45667,-2.24679 0.96828,-0.96829 0.46296,1.15693 0.40604,2.53925 -0.12645,3.07181 -0.53257,0.53255 -0.91135,-0.41404 -0.84176,-2.10352 z M 1134.5982,622.6402 c 6.6414,-7.07613 8.0803,-8.3485 8.0803,-7.14508 0,0.25722 -3.4257,3.68294 -7.6127,7.61273 l -7.6127,7.14507 7.1451,-7.61272 z m -347.91874,2.40402 c -1.99352,-2.54195 -1.93684,-2.59863 0.6051,-0.60511 1.54258,1.20978 2.80469,2.47189 2.80469,2.80469 0,1.31907 -1.3161,0.47008 -3.40979,-2.19958 z m 427.31824,-82.13729 c 1.5955,-1.76294 3.2614,-3.20535 3.7022,-3.20535 0.4407,0 -0.504,1.44241 -2.0995,3.20535 -1.5954,1.76295 -3.2614,3.20536 -3.7021,3.20536 -0.4408,0 0.504,-1.44241 2.0994,-3.20536 z M 1070.558,473.38664 c 0,-0.3328 1.2621,-1.59491 2.8047,-2.80469 2.5419,-1.99352 2.5986,-1.93684 0.6051,0.60511 -2.0937,2.66966 -3.4098,3.51865 -3.4098,2.19958 z m -97.63686,-3.53514 c 0.0769,-1.86704 0.45666,-2.2468 0.96827,-0.96829 0.46297,1.15692 0.40604,2.53925 -0.12645,3.0718 -0.53257,0.53256 -0.91135,-0.41403 -0.84176,-2.10351 z m 98.43816,-157.73031 c 1.5955,-1.76294 3.2615,-3.20535 3.7022,-3.20535 0.4407,0 -0.504,1.44241 -2.0995,3.20535 -1.5954,1.76295 -3.2614,3.20536 -3.7021,3.20536 -0.4408,0 0.504,-1.44241 2.0994,-3.20536 z m 72.6214,-246.304652 c 1.1569,-0.462966 2.5393,-0.406039 3.0718,0.126451 0.5326,0.532554 -0.414,0.911347 -2.1035,0.841759 -1.867,-0.07693 -2.2468,-0.456667 -0.9683,-0.968274 z m 352.7685,-198.839368 -3.8854,-4.40737 4.4074,3.8854 c 4.1193,3.63149 5.1423,4.92934 3.8854,4.92934 -0.2871,0 -2.2704,-1.98332 -4.4074,-4.40737 z"
           id="path4171"
           inkscape:connector-curvature="0" />
        <path
           style="fill:#afafaf"
           d="m 736.80019,771.02857 c 1.10184,-0.4446 2.90485,-0.4446 4.00669,0 1.10184,0.4446 0.20034,0.80838 -2.00335,0.80838 -2.20368,0 -3.10519,-0.36378 -2.00334,-0.80838 z m 282.47211,-36.40529 c 0,-0.3328 1.2621,-1.59491 2.8047,-2.80469 2.5419,-1.99353 2.5986,-1.93684 0.6051,0.6051 -2.0937,2.66967 -3.4098,3.51865 -3.4098,2.19959 z m 72.1205,-70.7141 c 2.0703,-2.20369 4.1247,-4.0067 4.5655,-4.0067 0.4407,0 -0.8925,1.80301 -2.9628,4.0067 -2.0703,2.20368 -4.1247,4.0067 -4.5654,4.0067 -0.4408,0 0.8925,-1.80302 2.9627,-4.0067 z m 51.2857,-49.48681 c 0,-0.3328 1.2621,-1.59491 2.8047,-2.80469 2.542,-1.99352 2.5987,-1.93684 0.6051,0.60511 -2.0937,2.66966 -3.4098,3.51865 -3.4098,2.19958 z m 70.7709,-337.56011 c 0,-2.20368 0.3638,-3.10519 0.8084,-2.00335 0.4446,1.10184 0.4446,2.90486 0,4.0067 -0.4446,1.10184 -0.8084,0.20033 -0.8084,-2.00335 z m 344.972,-195.927477 -3.0531,-3.606027 3.606,3.053087 c 1.9833,1.67919 3.606,3.301902 3.606,3.606027 0,1.282543 -1.2898,0.335681 -4.1589,-3.053087 z m -77.5777,-8.217832 c 0,-0.332796 1.2621,-1.594905 2.8047,-2.804687 2.5419,-1.993524 2.5986,-1.936838 0.6051,0.605107 -2.0937,2.669662 -3.4098,3.518649 -3.4098,2.19958 z m -331.3233,-6.916248 c 1.5594,-0.406343 3.723,-0.379626 4.8081,0.05946 1.085,0.439022 -0.1908,0.771481 -2.8352,0.738819 -2.6445,-0.0327 -3.5322,-0.391855 -1.9729,-0.798198 z m 56.8646,0.0492 c 1.1018,-0.444599 2.9049,-0.444599 4.0067,0 1.1018,0.444599 0.2003,0.808375 -2.0033,0.808375 -2.2037,0 -3.1052,-0.363776 -2.0034,-0.808375 z m 72.7743,-43.813567 c 0,-2.203684 0.3637,-3.10519 0.8083,-2.003349 0.4446,1.101842 0.4446,2.904856 0,4.006697 -0.4446,1.101842 -0.8083,0.200335 -0.8083,-2.003348 z M 884.34678,3.3120666 c 1.15693,-0.4629658 2.53924,-0.4060386 3.07181,0.1264514 0.53255,0.5325701 -0.41404,0.9113472 -2.10352,0.8417589 -1.86704,-0.076929 -2.24679,-0.4566673 -0.96829,-0.9682744 z M 1366.2522,-131.82082 c 1.5954,-1.76295 3.2614,-3.20536 3.7022,-3.20536 0.4407,0 -0.5041,1.44241 -2.0995,3.20536 -1.5955,1.76295 -3.2614,3.20536 -3.7022,3.20536 -0.4407,0 0.504,-1.44241 2.0995,-3.20536 z"
           id="path4169"
           inkscape:connector-curvature="0" />
        <path
           style="fill:#8f8f8f"
           d="m 1101.8102,653.49177 c 3.443,-3.5259 6.6205,-6.41072 7.0613,-6.41072 0.4407,0 -2.0157,2.88482 -5.4586,6.41072 -3.4429,3.52589 -6.6205,6.41071 -7.0612,6.41071 -0.4408,0 2.0156,-2.88482 5.4585,-6.41071 z m 51.2857,-49.68304 c 3.443,-3.5259 6.6205,-6.41072 7.0613,-6.41072 0.4407,0 -2.0156,2.88482 -5.4586,6.41072 -3.4429,3.52589 -6.6205,6.41071 -7.0612,6.41071 -0.4408,0 2.0156,-2.88482 5.4585,-6.41071 z m 53.6898,-53.68974 c 2.0702,-2.20369 4.1247,-4.0067 4.5654,-4.0067 0.4408,0 -0.8925,1.80301 -2.9627,4.0067 -2.0703,2.20368 -4.1247,4.00669 -4.5655,4.00669 -0.4407,0 0.8925,-1.80301 2.9628,-4.00669 z m -196.6983,-45.18431 c 1.5593,-0.40634 3.723,-0.37963 4.808,0.0595 1.0851,0.43902 -0.1907,0.77148 -2.8352,0.73882 -2.6444,-0.0327 -3.5322,-0.39186 -1.9728,-0.7982 z M 1167.9968,65.717749 c 7.314,-0.29765 18.8533,-0.295983 25.6429,0.0032 6.7895,0.299669 0.8054,0.543196 -13.2982,0.541161 -14.1036,-0.0016 -19.6587,-0.247214 -12.3447,-0.544847 z M 1520.51,57.836528 c 1.1018,-0.444599 2.9049,-0.444599 4.0067,0 1.1018,0.444599 0.2003,0.808375 -2.0033,0.808375 -2.2037,0 -3.1052,-0.363776 -2.0034,-0.808375 z M 889.15482,3.3120666 c 1.15692,-0.4629658 2.53923,-0.4060386 3.0718,0.1264514 0.53256,0.5325701 -0.41403,0.9113472 -2.10351,0.8417589 -1.86704,-0.076929 -2.2468,-0.4566673 -0.96829,-0.9682744 z"
           id="path4167"
           inkscape:connector-curvature="0" />
        <path
           style="fill:#6f6f6f"
           d="m 1163.5134,593.39131 c 2.0702,-2.20368 4.1247,-4.00669 4.5654,-4.00669 0.4407,0 -0.8925,1.80301 -2.9628,4.00669 -2.0702,2.20369 -4.1247,4.0067 -4.5654,4.0067 -0.4407,0 0.8925,-1.80301 2.9628,-4.0067 z m 35.2589,-35.0627 c 0,-0.33279 1.2621,-1.5949 2.8047,-2.80469 2.5419,-1.99352 2.5986,-1.93683 0.6051,0.60511 -2.0937,2.66966 -3.4098,3.51865 -3.4098,2.19958 z m 3.2053,-194.12036 c 2.0703,-2.20368 4.1247,-4.0067 4.5655,-4.0067 0.4407,0 -0.8925,1.80302 -2.9628,4.0067 -2.0702,2.20369 -4.1247,4.0067 -4.5654,4.0067 -0.4408,0 0.8925,-1.80301 2.9627,-4.0067 z M 1474.686,94.156883 c 0,-2.203684 0.3638,-3.105191 0.8084,-2.003349 0.4446,1.101842 0.4446,2.904855 0,4.006697 -0.4446,1.101842 -0.8084,0.200335 -0.8084,-2.003348 z M 1340.1204,-70.117689 c 0.033,-2.64442 0.3919,-3.532202 0.7982,-1.972847 0.4064,1.559354 0.3797,3.72297 -0.059,4.808037 -0.439,1.085064 -0.7714,-0.19077 -0.7388,-2.83519 z"
           id="path4164"
           inkscape:connector-curvature="0" />
        <path
           style="fill:#4d4d4d"
           d="m 922.31023,821.77304 c 4.3411,-4.40737 8.25351,-8.0134 8.69424,-8.0134 0.44074,0 -2.75047,3.60603 -7.09156,8.0134 -4.3411,4.40736 -8.25351,8.01339 -8.69424,8.01339 -0.44074,0 2.75047,-3.60603 7.09156,-8.01339 z M 685.91514,627.2438 c 0,-0.3328 1.26211,-1.59491 2.80469,-2.80469 2.54194,-1.99352 2.59862,-1.93684 0.6051,0.60511 -2.09369,2.66966 -3.40979,3.51865 -3.40979,2.19958 z m 482.40626,-38.46429 c 0,-0.3328 1.2621,-1.59491 2.8047,-2.80469 2.5419,-1.99352 2.5986,-1.93684 0.6051,0.60511 -2.0937,2.66966 -3.4098,3.51865 -3.4098,2.19958 z m 96.962,-539.497632 c 1.5955,-1.762947 3.2615,-3.205358 3.7022,-3.205358 0.4407,0 -0.504,1.442411 -2.0995,3.205358 -1.5954,1.762946 -3.2614,3.205357 -3.7021,3.205357 -0.4408,0 0.504,-1.442411 2.0994,-3.205357 z M 1496.0692,-5.2092 c 1.5954,-1.7629466 3.2614,-3.2053575 3.7021,-3.2053575 0.4408,0 -0.504,1.4424109 -2.0995,3.2053575 -1.5954,1.7629466 -3.2614,3.2053575 -3.7021,3.2053575 -0.4408,0 0.504,-1.4424109 2.0995,-3.2053575 z"
           id="path4162"
           inkscape:connector-curvature="0" />
        <path
           style="fill:#2e2e2e"
           d="m 911.09148,832.99179 c 1.59545,-1.76295 3.26142,-3.20536 3.70216,-3.20536 0.44073,0 -0.50403,1.44241 -2.09948,3.20536 -1.59545,1.76294 -3.26142,3.20535 -3.70216,3.20535 -0.44073,0 0.50403,-1.44241 2.09948,-3.20535 z m 22.4375,-22.43751 c 1.59545,-1.76294 3.26142,-3.20535 3.70216,-3.20535 0.44073,0 -0.50403,1.44241 -2.09948,3.20535 -1.59545,1.76295 -3.26142,3.20536 -3.70216,3.20536 -0.44073,0 0.50403,-1.44241 2.09948,-3.20536 z m 103.37272,-93.7567 c 2.9903,-3.08516 5.7975,-5.60938 6.2382,-5.60938 0.4407,0 -1.6452,2.52422 -4.6355,5.60938 -2.9902,3.08515 -5.7974,5.60937 -6.2381,5.60937 -0.4408,0 1.6452,-2.52422 4.6354,-5.60937 z M 642.76935,681.40509 c 0.0769,-1.86704 0.45666,-2.24679 0.96828,-0.96829 0.46297,1.15693 0.40603,2.53925 -0.12653,3.07181 -0.53255,0.53255 -0.91134,-0.41404 -0.84175,-2.10352 z m 24.04018,0 c 0.0769,-1.86704 0.45666,-2.24679 0.96828,-0.96829 0.46297,1.15693 0.40603,2.53925 -0.12653,3.07181 -0.53256,0.53255 -0.91135,-0.41404 -0.84176,-2.10352 z m -23.91366,-11.88654 c 0,-2.20368 0.36377,-3.10519 0.80837,-2.00334 0.44461,1.10184 0.44461,2.90485 0,4.00669 -0.4446,1.10184 -0.80837,0.20034 -0.80837,-2.00335 z m 473.33843,-30.45089 c 1.5955,-1.76295 3.2615,-3.20536 3.7022,-3.20536 0.4407,0 -0.504,1.44241 -2.0995,3.20536 -1.5954,1.76294 -3.2614,3.20536 -3.7021,3.20536 -0.4408,0 0.504,-1.44242 2.0994,-3.20536 z M 733.695,604.3166 c 1.15693,-0.46297 2.53924,-0.40604 3.0718,0.12645 0.53255,0.53255 -0.41403,0.91135 -2.10352,0.84176 -1.86703,-0.0769 -2.24679,-0.45667 -0.96828,-0.96828 z m 6.41071,0 c 1.15693,-0.46297 2.53924,-0.40604 3.0718,0.12645 0.53256,0.53255 -0.41402,0.91135 -2.10351,0.84176 -1.86703,-0.0769 -2.2468,-0.45667 -0.96829,-0.96828 z m 443.44109,-30.95877 c 6.1231,-6.17031 11.4934,-11.21875 11.9342,-11.21875 0.4407,0 -4.2085,5.04844 -10.3315,11.21875 -6.123,6.17031 -11.4934,11.21875 -11.9341,11.21875 -0.4407,0 4.2084,-5.04844 10.3314,-11.21875 z m -449.8518,6.91859 c 1.15693,-0.46297 2.53924,-0.40604 3.0718,0.12645 0.53255,0.53255 -0.41403,0.91135 -2.10352,0.84176 -1.86703,-0.0769 -2.24679,-0.45667 -0.96828,-0.96828 z m 6.41071,0 c 1.15693,-0.46297 2.53924,-0.40604 3.0718,0.12645 0.53256,0.53255 -0.41402,0.91135 -2.10351,0.84176 -1.86703,-0.0769 -2.2468,-0.45667 -0.96829,-0.96828 z m 479.50139,-44.38531 c 0,-0.3328 1.2621,-1.59491 2.8047,-2.80469 2.5419,-1.99352 2.5986,-1.93683 0.6051,0.60511 -2.0937,2.66966 -3.4098,3.51865 -3.4098,2.19958 z m -129.817,-81.93285 c 2.0703,-2.20368 4.1247,-4.00669 4.5655,-4.00669 0.4407,0 -0.8925,1.80301 -2.9628,4.00669 -2.0702,2.20369 -4.1247,4.0067 -4.5654,4.0067 -0.4408,0 0.8925,-1.80301 2.9627,-4.0067 z m 27.2456,-26.94569 c 0,-0.27582 2.3439,-2.61974 5.2087,-5.20871 l 5.2087,-4.70721 -4.7072,5.20871 c -4.3878,4.85525 -5.7102,5.94537 -5.7102,4.70721 z m -33.6563,-126.71524 c 0,-0.33279 1.2621,-1.5949 2.8047,-2.80468 2.542,-1.99353 2.5986,-1.93684 0.6051,0.6051 -2.0937,2.66967 -3.4098,3.51865 -3.4098,2.19958 z m 16.0268,-16.02678 c 0,-0.3328 1.2621,-1.59491 2.8047,-2.80469 2.5419,-1.99353 2.5986,-1.93684 0.6051,0.60511 -2.0937,2.66966 -3.4098,3.51865 -3.4098,2.19958 z m 75.0254,-304.998671 c 1.1569,-0.462967 2.5393,-0.406029 3.0718,0.126531 0.5326,0.532558 -0.414,0.911349 -2.1035,0.841759 -1.867,-0.0769 -2.2468,-0.456669 -0.9683,-0.968285 z m 46.4777,0 c 1.1569,-0.462967 2.5392,-0.406029 3.0718,0.126531 0.5325,0.532558 -0.414,0.911349 -2.1035,0.841759 -1.8671,-0.0769 -2.2468,-0.456669 -0.9683,-0.968285 z"
           id="path4160"
           inkscape:connector-curvature="0" />
        <path
           style="fill:#000000"
           d="m 876.59583,861.13878 c 5.04637,-13.27298 23.59199,-45.59228 49.71893,-86.64477 11.21989,-17.62946 37.19077,-58.73817 57.71307,-91.35269 114.13987,-181.39369 180.80847,-278.68431 215.99187,-315.20049 25.9307,-26.91299 56.1038,-42.99821 80.6571,-42.99821 10.0428,0 27.2651,5.47772 31.3965,9.98591 11.5264,12.57795 14.2556,33.7443 7.0816,54.92258 -12.4458,36.74093 -45.125,85.71964 -92.9438,139.30175 -9.1492,10.25183 -53.5033,54.89548 -98.5647,99.20809 -101.4717,99.78545 -115.6013,113.30121 -147.64646,141.2327 -39.64212,34.55317 -60.10009,53.9531 -77.22316,73.22937 -14.29366,16.09107 -21.47372,22.22234 -26.02363,22.22234 -1.07865,0 -1.13266,-1.34123 -0.15739,-3.90658 z M 717.06365,768.11711 c -34.07706,-7.41639 -63.28752,-36.63462 -71.28447,-71.30343 -2.79772,-12.1288 -2.36408,-34.82449 0.87998,-46.05648 9.45619,-32.74044 35.71433,-58.63537 67.87169,-66.93289 12.77454,-3.29619 34.8501,-3.32233 47.51152,-0.0562 39.3877,10.16023 68.31407,45.19394 70.80181,85.75051 3.88718,63.37091 -53.41702,112.1711 -115.78053,98.59856 z m 51.03955,-28.45894 c 54.54184,-25.9018 54.75087,-102.61402 0.349,-128.07174 -27.34746,-12.79741 -58.32522,-7.52942 -79.90942,13.58919 -27.43512,26.84333 -28.435,69.49018 -2.29969,98.08639 15.06384,16.48224 31.97492,23.46851 55.02034,22.7299 12.83102,-0.41125 15.8875,-1.13253 26.83977,-6.33374 z m 225.59553,-238.7896 c -6.30305,-2.62198 -10.05833,-5.50876 -13.44652,-10.33667 -6.87215,-9.79224 -7.35843,-19.34027 -1.87991,-36.9118 8.29118,-26.59271 17.88328,-42.69295 53.6521,-90.05454 62.7364,-83.06948 103.6324,-117.1542 140.5655,-117.1542 6.5112,0 11.6937,1.47788 22.1943,6.32922 11.6864,5.39912 14.0459,7.15793 16.0559,11.96862 12.6974,30.38908 -26.7365,95.69955 -105.0575,173.99648 -54.5432,54.52648 -68.4445,64.47368 -91.3184,65.3437 -9.583,0.36449 -13.7931,-0.28041 -20.76547,-3.18081 z M 1363.3697,347.73662 c -2.6776,-1.16524 -2.6207,-1.4942 0.8014,-4.63124 6.35,-5.82104 28.4327,-15.49749 67.0566,-29.38359 22.5042,-8.09074 35.1606,-13.94263 53.9714,-24.95461 21.1854,-12.40205 63.0934,-40.84604 64.1192,-43.51931 1.4905,-3.88408 -7.6546,-25.63241 -16.1513,-38.4103 -4.5764,-6.8823 -15.2937,-22.6533 -23.8163,-35.04669 -17.2843,-25.13462 -28.9772,-47.63094 -31.7836,-61.14916 -1.0254,-4.93932 -1.5879,-13.873801 -1.2499,-19.854421 0.5219,-9.237969 1.3517,-11.78477 5.5151,-16.928808 7.0024,-8.651676 18.1321,-13.729251 32.0517,-14.622568 10.5496,-0.67702 12.2051,-0.328517 21.1911,4.460944 19.0748,10.166801 36.7199,29.597422 48.7641,53.698853 7.3039,14.61552 31.0529,85.17554 33.1315,98.43575 2.0489,13.07077 -0.4239,38.79691 -4.8718,50.68508 -12.6412,33.78665 -64.0282,60.63948 -139.2686,72.77627 -36.9066,5.95327 -103.3972,11.08238 -109.4606,8.4438 z M 1120.241,64.249054 c -22.4458,-1.554903 -52.0658,-4.312071 -75.3259,-7.011704 -14.5443,-1.688053 -39.0652,-4.187062 -54.49103,-5.553346 C 949.80801,48.086552 892.7583,42.149396 820.54014,34.004182 758.31032,26.985523 736.36059,23.945049 737.76715,22.538506 742.5138,17.791852 834.89721,6.8170289 896.66737,3.661707 c 30.34975,-1.5503032 75.02865,-5.3047817 143.43973,-12.0535786 106.9263,-10.5483424 123.1102,-11.7823494 156.2612,-11.9147544 29.6202,-0.11831 32.8768,0.156309 42.8976,3.617326 23.2312,8.0236332 39.6403,23.8574277 39.6403,38.250541 0,9.553247 -3.2677,16.595145 -12.0651,26.000289 -8.1888,8.75444 -18.1335,13.005209 -37.6179,16.079339 -9.2366,1.457268 -90.2026,1.909127 -108.9822,0.608185 z m 292.4889,-46.176268 c -27.6794,-6.062148 -50.0826,-23.9048479 -62.4358,-49.726185 -6.3927,-13.362261 -8.8973,-24.390928 -8.8442,-38.943846 0.051,-14.091589 2.0698,-22.311305 8.9369,-36.394255 19.8723,-40.75336 67.6281,-60.74871 110.8482,-46.4121 44.732,14.83812 71.5897,61.072241 60.4844,104.120734 -4.4207,17.136276 -11.5682,29.46497 -24.7109,42.6239325 -22.679,22.7069115 -52.9561,31.5917775 -84.2786,24.7317195 z"
           id="path4158"
           inkscape:connector-curvature="0" />
      </g>
    </g>
  </g>
</svg>
